{"glyphs":{"0":{"ha":707,"x_min":-39,"x_max":738,"o":"m 272 -28 l -39 85 q 435 972 63 743 l 738 847 q 272 -28 643 194 m 225 136 q 436 394 360 233 q 554 772 513 554 l 482 806 q 269 547 347 708 q 147 168 192 386 l 225 136 z "},"1":{"ha":526,"x_min":40,"x_max":575,"o":"m 251 -28 l 74 49 l 376 782 l 343 799 q 165 538 263 671 l 40 615 q 281 972 193 825 l 575 835 l 251 -28 z "},"2":{"ha":590,"x_min":-65,"x_max":618,"o":"m -51 -29 l -65 103 q 223 432 104 275 q 429 765 342 589 l 336 807 q 175 550 243 685 l 46 615 q 288 972 158 854 l 618 821 q 151 132 494 501 q 454 172 322 146 l 478 24 q -51 -29 261 -29 z "},"3":{"ha":628,"x_min":-58,"x_max":624,"o":"m 507 67 q -43 -24 332 -40 l -58 129 q 367 175 206 132 l 357 296 l 67 269 l 58 396 l 190 407 q 433 763 339 571 l 333 806 q 174 550 240 685 l 44 615 q 286 972 150 844 l 624 821 q 388 425 536 610 l 476 433 l 507 67 z "},"4":{"ha":675,"x_min":25,"x_max":719,"o":"m 415 -28 l 239 49 l 329 283 l 25 404 l 229 972 l 396 903 l 236 464 l 378 407 l 563 886 l 719 826 l 415 -28 z "},"5":{"ha":619,"x_min":-74,"x_max":649,"o":"m 403 -18 q 178 -20 306 -39 q -74 54 50 -1 l -36 217 q 285 138 126 150 l 338 274 l 31 394 l 238 931 l 254 971 l 649 831 l 596 682 l 360 764 l 240 456 l 532 340 l 403 -18 z "},"6":{"ha":631,"x_min":-40,"x_max":610,"o":"m 351 -28 l -40 101 q 369 972 53 624 l 506 889 q 321 636 397 765 l 610 535 q 514 224 572 357 q 353 -26 456 92 l 351 -25 l 351 -28 m 290 129 q 428 460 378 268 l 260 519 q 143 179 181 360 l 290 129 z "},"7":{"ha":596,"x_min":31,"x_max":632,"o":"m 335 -29 l 161 44 l 242 254 l 31 329 l 78 450 l 288 376 l 438 758 l 326 807 q 164 550 242 696 l 36 615 q 276 972 144 849 l 632 815 l 335 -29 z "},"8":{"ha":692,"x_min":-50,"x_max":719,"o":"m 229 -28 l 15 54 l -50 79 q 10 321 -39 217 q 165 514 60 425 l 122 532 q 226 824 129 696 q 467 972 324 951 l 719 861 q 538 468 699 611 l 599 440 q 487 122 586 247 q 229 -28 388 -3 m 403 528 q 560 794 519 631 l 472 832 q 297 574 333 764 l 403 528 m 228 107 q 424 403 390 176 l 300 454 q 115 150 153 324 l 228 107 z "},"9":{"ha":632,"x_min":15,"x_max":665,"o":"m 256 -28 l 119 56 q 304 308 232 186 l 15 410 q 111 720 53 588 q 272 971 169 853 l 274 969 l 274 972 l 665 843 q 256 -28 572 321 m 365 425 q 482 765 444 585 l 335 815 q 197 485 247 676 l 365 425 z "},"\u0000":{"ha":0,"x_min":0,"x_max":0,"o":""},"\r":{"ha":0,"x_min":0,"x_max":0,"o":""}," ":{"ha":240,"x_min":0,"x_max":0,"o":""},"!":{"ha":364,"x_min":-90,"x_max":446,"o":"m 446 913 l 201 264 l 40 325 l 285 972 l 446 913 m 157 149 l 93 -28 l -90 40 l -28 218 l 157 149 z "},"\"":{"ha":400,"x_min":133,"x_max":604,"o":"m 357 918 l 256 697 l 133 742 l 204 972 l 357 918 m 604 918 l 501 697 l 379 742 l 450 972 l 604 918 z "},"#":{"ha":886,"x_min":-37,"x_max":943,"o":"m 524 -28 l 353 25 l 472 324 l 276 286 l 154 -28 l -12 25 l 78 254 l -24 233 l -37 340 l 124 368 l 188 528 l 65 504 l 51 611 l 233 642 l 364 972 l 517 911 l 425 671 l 625 708 l 729 972 l 883 911 l 817 738 l 939 760 l 943 661 l 775 631 l 711 464 l 842 488 l 846 390 l 671 357 l 524 -28 m 319 397 l 517 435 l 581 599 l 381 560 l 319 397 z "},"$":{"ha":721,"x_min":-72,"x_max":771,"o":"m 483 -29 q 292 -18 408 -31 l 225 -187 l 74 -129 l 129 7 q -72 61 53 22 l -24 238 q 429 133 215 167 q 46 453 179 274 l 47 454 q 54 481 49 465 q 224 789 111 657 q 488 963 338 921 l 542 1093 l 688 1036 l 644 926 q 771 832 728 879 l 639 447 l 489 490 l 593 836 q 246 458 360 772 l 558 193 l 483 -29 z "},"%":{"ha":911,"x_min":61,"x_max":847,"o":"m 732 972 l 822 910 l 158 -28 l 68 33 l 732 972 m 238 488 q 90 526 168 486 q 76 533 85 528 q 61 543 69 536 q 247 950 85 818 q 346 968 293 965 q 471 918 407 963 q 238 488 439 592 m 200 571 q 357 886 325 660 q 335 892 349 889 q 176 578 208 803 q 200 571 189 572 m 614 -26 q 465 11 547 -31 q 460 15 464 13 q 453 18 456 17 q 438 28 450 19 q 624 436 461 301 q 722 454 676 453 q 847 404 779 449 q 614 -26 815 79 m 576 56 q 733 372 699 144 q 711 378 725 375 q 553 63 582 285 q 565 59 557 61 q 576 56 572 57 z "},"&":{"ha":810,"x_min":-107,"x_max":825,"o":"m 653 36 l 549 -28 l 447 138 l 83 -28 l -107 79 q 18 317 -57 217 q 213 521 93 417 l 147 628 q 611 972 322 925 q 726 914 667 954 q 825 829 786 874 l 611 460 l 488 522 l 642 828 q 335 586 456 765 l 494 307 l 681 392 l 725 263 l 565 189 l 653 36 m 97 132 l 374 257 l 299 382 q 97 132 176 272 z "},"'":{"ha":222,"x_min":133,"x_max":357,"o":"m 357 918 l 256 697 l 133 742 l 204 972 l 357 918 z "},"(":{"ha":424,"x_min":-14,"x_max":564,"o":"m -14 -131 q 110 478 -1 185 q 418 1003 222 772 l 564 931 q 276 424 383 710 q 154 -162 168 139 l -14 -131 z "},")":{"ha":424,"x_min":-150,"x_max":393,"o":"m 1 -183 l -150 -100 q 133 428 33 139 q 235 1003 232 717 l 393 964 q 295 365 397 663 q 1 -183 193 67 z "},"*":{"ha":319,"x_min":94,"x_max":418,"o":"m 375 689 l 296 642 l 247 756 l 157 647 l 94 706 l 181 815 l 104 824 l 115 904 l 214 894 l 229 992 l 324 981 l 311 885 l 418 874 l 408 792 l 321 801 l 375 689 z "},"+":{"ha":633,"x_min":-42,"x_max":563,"o":"m 535 210 l 322 256 l 261 -28 l 104 13 l 165 290 l -42 336 l -12 464 l 196 421 l 251 674 l 404 639 l 350 386 l 563 340 l 535 210 z "},",":{"ha":278,"x_min":-201,"x_max":149,"o":"m -153 -251 l -201 -192 l -24 0 l -93 68 l -36 218 l 149 149 l 75 -57 l -153 -251 z "},"-":{"ha":424,"x_min":-47,"x_max":369,"o":"m -47 239 l 7 397 l 369 397 l 315 239 l -47 239 z "},".":{"ha":274,"x_min":-111,"x_max":135,"o":"m 135 149 l 72 -28 l -111 40 l -49 218 l 135 149 z "},"/":{"ha":510,"x_min":-94,"x_max":642,"o":"m 521 972 l 642 854 l 25 -28 l -94 96 l 521 972 z "},":":{"ha":288,"x_min":-104,"x_max":286,"o":"m 286 589 l 222 413 l 39 481 l 101 658 l 286 589 m 143 149 l 79 -28 l -104 40 l -42 218 l 143 149 z "},";":{"ha":289,"x_min":-200,"x_max":290,"o":"m 290 589 l 228 413 l 44 481 l 107 658 l 290 589 m -151 -251 l -200 -192 l -22 0 l -93 68 l -35 218 l 150 149 l 76 -57 l -151 -251 z "},"<":{"ha":510,"x_min":-50,"x_max":485,"o":"m 340 21 l -50 296 l -25 439 l 42 468 l 438 643 l 485 514 l 101 350 l 403 150 l 340 21 z "},"=":{"ha":682,"x_min":-72,"x_max":644,"o":"m 644 485 l 617 354 l 43 481 l 71 608 l 644 485 m 533 207 l 506 76 l -72 203 l -42 331 l 533 207 z "},">":{"ha":507,"x_min":-71,"x_max":464,"o":"m -22 21 l -71 150 l 314 314 l 13 515 l 76 643 l 464 369 l 439 226 l 374 197 l -22 21 z "},"?":{"ha":533,"x_min":-26,"x_max":644,"o":"m 226 264 l 114 364 q 471 775 356 596 l 425 822 q 164 574 293 729 l 49 674 q 410 972 217 888 l 511 882 l 644 761 l 643 760 l 644 760 q 226 264 519 536 m 221 149 l 157 -28 l -26 40 l 36 218 l 221 149 z "},"@":{"ha":993,"x_min":-15,"x_max":915,"o":"m 378 -206 q 99 -69 213 -206 q -15 251 -15 67 q 63 547 -15 401 q 265 783 140 692 q 519 874 390 874 q 801 735 686 874 q 915 406 915 597 q 782 29 915 219 l 663 58 l 460 108 l 535 339 l 338 57 l 163 119 q 263 452 161 294 q 494 622 365 610 l 600 528 l 631 615 l 739 583 l 604 156 l 719 119 q 811 393 811 268 q 724 663 811 549 q 517 776 638 776 q 317 701 418 776 q 153 503 217 625 q 89 260 89 382 q 177 1 89 110 q 388 -107 265 -107 l 378 -206 m 331 164 l 549 456 l 496 500 q 294 183 349 404 l 331 164 z "},"A":{"ha":769,"x_min":-131,"x_max":689,"o":"m 418 21 l 446 263 l 132 183 l 7 -28 l -131 69 l 417 972 l 689 865 l 604 -24 l 418 21 m 217 328 l 461 382 l 506 819 l 217 328 z "},"B":{"ha":860,"x_min":-43,"x_max":799,"o":"m 157 -28 l -43 131 l 207 775 l 182 872 q 675 972 401 965 l 757 792 q 536 454 694 624 l 756 497 l 799 314 q 524 50 676 124 q 157 -28 372 -24 m 331 429 q 608 817 510 600 l 386 760 l 151 122 q 638 369 481 143 l 351 313 l 331 429 z "},"C":{"ha":758,"x_min":-19,"x_max":806,"o":"m 640 143 l 218 -29 l -19 69 q 50 480 -15 290 q 250 805 115 669 q 567 972 385 940 q 806 832 724 910 l 675 449 l 519 490 l 621 836 q 171 126 232 718 l 594 292 l 640 143 z "},"D":{"ha":792,"x_min":-44,"x_max":828,"o":"m 157 -29 l -44 131 l 207 775 l 182 872 q 721 972 388 958 l 828 757 q 597 256 754 444 q 157 -29 439 67 m 158 144 q 489 401 364 233 q 671 821 614 568 l 385 757 l 158 144 z "},"E":{"ha":668,"x_min":-44,"x_max":722,"o":"m 146 -28 l -44 131 l 207 775 l 182 872 q 696 969 410 965 l 722 832 l 383 757 l 288 496 q 557 550 390 531 l 579 439 l 229 340 l 154 139 l 533 231 l 564 83 l 146 -28 z "},"F":{"ha":638,"x_min":-71,"x_max":729,"o":"m 110 -28 l -71 49 l 214 775 l 189 872 q 703 969 419 965 l 729 832 l 394 757 l 299 497 q 564 550 406 532 l 586 439 l 243 343 l 110 -28 z "},"G":{"ha":774,"x_min":-19,"x_max":806,"o":"m 625 129 l 218 -29 l -19 69 q 50 480 -15 290 q 250 805 115 669 q 567 972 385 940 q 806 832 721 913 l 685 478 l 528 519 l 621 836 q 171 122 229 717 l 553 265 l 339 319 l 376 446 l 697 356 l 625 129 z "},"H":{"ha":838,"x_min":-72,"x_max":904,"o":"m 563 -28 l 382 49 l 501 356 l 222 286 l 108 -28 l -72 49 l 289 972 l 450 913 l 275 433 l 557 496 l 743 972 l 904 913 l 563 -28 z "},"I":{"ha":383,"x_min":-72,"x_max":450,"o":"m 450 913 l 108 -28 l -72 49 l 289 972 l 450 913 z "},"J":{"ha":568,"x_min":-62,"x_max":636,"o":"m 126 -28 l -62 249 l 57 344 l 167 168 l 475 972 l 636 913 l 325 53 l 126 -28 z "},"K":{"ha":764,"x_min":-72,"x_max":854,"o":"m 507 -28 l 233 317 l 108 -28 l -72 49 l 289 972 l 450 913 l 257 383 l 728 969 l 854 863 l 436 342 l 633 97 l 507 -28 z "},"L":{"ha":672,"x_min":-47,"x_max":536,"o":"m 142 -28 l -47 131 l 282 972 l 442 913 l 157 140 l 504 225 l 536 76 l 142 -28 z "},"M":{"ha":1065,"x_min":-72,"x_max":1122,"o":"m 794 -28 l 628 49 l 908 750 l 432 -28 l 276 49 l 368 742 l 93 -28 l -72 49 l 289 972 l 522 881 l 435 208 l 900 972 l 1122 883 l 794 -28 z "},"N":{"ha":853,"x_min":-72,"x_max":919,"o":"m 578 -28 l 354 63 l 356 703 l 93 -28 l -72 49 l 289 972 l 492 889 l 483 213 l 774 972 l 919 913 l 578 -28 z "},"O":{"ha":819,"x_min":-17,"x_max":836,"o":"m 226 -31 l -17 69 q 25 386 -14 235 q 136 663 64 538 q 326 870 208 788 q 592 972 443 953 l 836 872 q 794 556 833 706 q 683 280 756 406 q 492 72 610 154 q 226 -31 375 -11 m 168 111 q 382 200 292 135 q 526 365 472 265 q 610 578 581 465 q 650 832 639 692 q 168 111 218 747 z "},"P":{"ha":774,"x_min":-71,"x_max":829,"o":"m 110 -28 l -71 49 l 214 775 l 189 872 q 722 972 394 958 l 829 757 q 622 437 776 571 q 214 260 467 303 l 110 -28 m 274 425 q 535 565 432 465 q 674 821 638 665 l 396 758 l 274 425 z "},"Q":{"ha":826,"x_min":-17,"x_max":836,"o":"m 636 -139 l 335 -54 l 333 -54 l 146 -3 l -17 69 q 25 386 -14 235 q 136 663 64 538 q 326 870 208 788 q 592 972 443 953 l 836 872 q 724 361 831 590 q 419 33 618 132 l 693 -8 l 636 -139 m 168 111 q 382 200 292 135 q 526 365 472 265 q 610 578 581 465 q 650 832 639 692 q 168 111 218 747 z "},"R":{"ha":789,"x_min":-71,"x_max":828,"o":"m 501 -28 l 221 285 l 107 -28 l -71 49 l 214 775 l 189 872 q 721 972 394 958 l 828 757 q 686 503 790 618 q 425 322 582 388 l 635 103 l 501 -28 m 269 418 q 532 564 429 463 q 672 821 635 665 l 396 758 l 269 418 z "},"S":{"ha":719,"x_min":-68,"x_max":774,"o":"m 486 -29 q -68 61 219 -33 l -19 238 q 433 133 215 168 q 50 453 181 275 l 51 454 q 60 486 53 469 q 247 808 122 672 q 538 972 371 944 q 774 832 690 913 l 643 447 l 493 490 l 597 835 q 249 458 363 764 l 563 193 l 486 -29 z "},"T":{"ha":571,"x_min":15,"x_max":728,"o":"m 685 746 l 490 764 l 204 -26 l 15 47 l 301 779 l 86 799 l 142 972 l 728 894 l 685 746 z "},"U":{"ha":797,"x_min":-56,"x_max":864,"o":"m 522 -28 l 353 36 l 411 190 q 104 -28 229 14 l -56 104 l 283 972 l 444 913 l 161 133 l 475 372 l 704 972 l 864 913 l 522 -28 z "},"V":{"ha":750,"x_min":69,"x_max":872,"o":"m 342 -28 l 69 65 l 179 968 l 361 896 l 251 129 l 731 972 l 872 854 l 342 -28 z "},"W":{"ha":1190,"x_min":64,"x_max":1315,"o":"m 785 -28 l 535 60 l 664 721 l 315 -28 l 64 60 l 190 968 l 372 896 l 247 151 l 649 972 l 838 899 l 703 143 l 1172 972 l 1315 857 l 785 -28 z "},"X":{"ha":738,"x_min":-106,"x_max":822,"o":"m 585 -26 l 407 17 l 325 321 l 24 -28 l -106 56 l 274 506 l 147 971 l 338 899 l 406 640 l 692 975 l 822 865 l 457 450 l 585 -26 z "},"Y":{"ha":625,"x_min":100,"x_max":761,"o":"m 272 -28 l 100 49 l 265 349 l 111 389 l 153 972 l 335 947 l 300 413 l 607 972 l 761 911 l 272 -28 z "},"Z":{"ha":664,"x_min":-68,"x_max":753,"o":"m 468 -28 l -68 78 l -44 213 l 468 764 l 143 825 l 181 972 q 401 948 283 968 q 603 897 519 928 l 658 956 l 753 847 l 150 194 l 513 128 l 468 -28 z "},"[":{"ha":424,"x_min":-85,"x_max":578,"o":"m 232 -67 l 190 -172 l -85 -72 l 321 1003 l 578 917 l 542 810 l 438 840 l 118 -22 l 232 -67 z "},"\\":{"ha":557,"x_min":107,"x_max":408,"o":"m 107 956 l 271 982 l 408 4 l 244 -28 l 107 956 z "},"]":{"ha":418,"x_min":-182,"x_max":488,"o":"m 82 -172 l -182 -86 l -147 21 l -35 -11 l 285 853 l 178 897 l 219 1003 l 488 903 l 82 -172 z "},"^":{"ha":707,"x_min":-42,"x_max":636,"o":"m 507 222 l 428 785 l 72 269 l -42 342 l 404 971 l 544 933 l 557 846 l 557 844 l 636 261 l 507 222 z "},"_":{"ha":685,"x_min":-167,"x_max":525,"o":"m -167 -153 l -125 0 l 525 0 l 483 -153 l -167 -153 z "},"`":{"ha":694,"x_min":442,"x_max":790,"o":"m 442 797 l 485 926 l 790 819 l 758 718 l 442 797 z "},"a":{"ha":742,"x_min":-60,"x_max":706,"o":"m 504 -28 l 336 43 l 426 338 l 175 -28 l -60 56 q -1 330 -60 190 q 154 567 57 469 q 356 675 251 665 l 504 543 l 556 661 l 706 607 l 504 -28 m 446 475 l 394 521 q 229 362 306 471 q 119 121 153 253 l 158 101 l 446 475 z "},"b":{"ha":757,"x_min":-82,"x_max":713,"o":"m 299 -28 l 132 114 l 76 -28 l -82 49 l 282 972 l 450 910 l 203 289 l 472 675 l 713 582 q 655 313 713 450 q 500 79 597 175 q 299 -28 403 -17 m 200 171 l 258 126 q 425 284 349 178 q 535 518 501 390 l 483 540 l 200 171 z "},"c":{"ha":596,"x_min":-35,"x_max":553,"o":"m 464 83 l 119 -29 l -35 61 q 58 469 -47 296 q 328 675 163 643 l 553 585 l 467 296 l 340 317 l 386 554 l 385 553 q 225 372 290 488 q 147 122 160 256 l 438 199 l 464 83 z "},"d":{"ha":756,"x_min":-60,"x_max":838,"o":"m 485 -28 l 328 49 l 453 367 l 182 -28 l -60 56 q -1 331 -60 190 q 154 568 57 471 q 356 675 251 665 l 518 535 l 690 972 l 838 854 l 485 -28 m 453 475 l 394 521 q 229 362 306 471 q 119 121 153 253 l 165 101 l 453 475 z "},"e":{"ha":596,"x_min":-35,"x_max":553,"o":"m 464 83 l 119 -29 l -35 61 q 58 469 -47 296 q 328 675 163 643 l 553 585 l 464 292 l 167 233 q 147 122 149 176 l 438 199 l 464 83 m 196 313 l 343 347 l 388 554 l 386 554 q 196 313 261 469 z "},"f":{"ha":418,"x_min":-185,"x_max":474,"o":"m 104 -25 q -12 -162 71 -115 q -160 -189 -96 -208 l -185 -106 l -97 -58 l 131 529 l 42 529 l 63 633 l 172 633 l 303 972 l 474 911 q 436 760 471 840 q 347 633 401 681 l 465 633 l 432 529 l 308 529 l 104 -25 z "},"g":{"ha":726,"x_min":-60,"x_max":697,"o":"m 422 -192 l 254 -269 l 74 -186 l 114 -72 l 263 -115 l 440 361 l 175 -28 l -60 58 q -1 332 -60 193 q 154 568 57 471 q 356 676 251 665 l 506 543 l 551 661 l 697 606 l 422 -192 m 158 101 l 446 475 l 394 521 q 229 362 306 471 q 119 121 153 253 l 158 101 z "},"h":{"ha":733,"x_min":-82,"x_max":679,"o":"m 494 -28 l 311 49 q 475 454 340 228 l 439 485 l 140 133 l 76 -28 l -82 49 l 282 972 l 450 910 l 226 349 q 532 675 390 571 l 679 558 l 494 -28 z "},"i":{"ha":356,"x_min":-87,"x_max":390,"o":"m 390 924 l 350 725 l 206 753 q 236 953 199 857 l 390 924 m 88 -28 l -87 49 l 168 674 l 333 610 l 88 -28 z "},"j":{"ha":346,"x_min":-210,"x_max":389,"o":"m 389 924 l 350 725 l 204 753 q 236 953 197 858 l 389 924 m -185 -186 l -210 -104 l -119 -57 l 169 674 l 325 610 l 82 -22 q -36 -159 47 -112 q -185 -186 -119 -206 z "},"k":{"ha":728,"x_min":-82,"x_max":679,"o":"m 497 -29 l 233 144 l 289 258 q 408 324 353 268 q 486 458 463 379 l 436 490 l 135 121 l 76 -28 l -82 49 l 282 972 l 450 910 l 219 332 q 525 675 379 565 l 679 572 q 612 356 671 463 q 454 194 553 249 l 576 110 l 497 -29 z "},"l":{"ha":349,"x_min":-82,"x_max":450,"o":"m -82 49 l 282 972 l 450 910 l 76 -28 l -82 49 z "},"m":{"ha":1081,"x_min":-86,"x_max":1026,"o":"m 842 -28 l 663 49 q 826 454 692 225 l 788 485 l 438 -28 l 279 49 q 438 463 299 222 l 410 483 l 161 160 l 90 -28 l -86 47 l 165 660 l 326 597 l 242 371 q 504 675 388 579 l 642 571 l 447 160 l 464 150 q 668 463 549 311 q 875 675 788 615 l 1026 558 l 842 -28 z "},"n":{"ha":738,"x_min":-86,"x_max":682,"o":"m 497 -28 l 315 49 q 478 454 344 231 l 442 485 l 157 149 l 90 -28 l -86 49 l 165 660 l 326 596 l 235 354 q 536 675 407 582 l 682 558 l 497 -28 z "},"o":{"ha":656,"x_min":-32,"x_max":589,"o":"m -32 65 q 56 472 -44 299 q 314 675 157 646 l 589 564 q 493 167 594 333 q 238 -28 392 1 l -32 65 m 211 93 q 342 278 289 167 q 411 511 394 390 l 333 546 q 201 352 254 468 q 136 122 147 236 l 211 93 z "},"p":{"ha":763,"x_min":-169,"x_max":718,"o":"m 303 -28 l 146 107 l 0 -275 l -169 -176 l 171 667 l 333 603 l 222 313 l 476 676 l 718 582 q 659 313 717 450 q 504 79 601 175 q 303 -28 407 -17 m 206 171 l 263 126 q 429 284 353 178 q 539 518 506 390 l 488 540 l 206 171 z "},"q":{"ha":757,"x_min":-60,"x_max":736,"o":"m 399 -264 l 211 -233 l 440 351 l 182 -28 l -60 58 q -1 332 -60 193 q 154 568 57 471 q 356 676 251 665 l 514 539 l 565 667 l 736 599 l 399 -264 m 453 475 l 394 521 q 229 362 306 471 q 119 121 153 253 l 165 101 l 453 475 z "},"r":{"ha":642,"x_min":-100,"x_max":593,"o":"m 411 -28 l 224 38 q 382 460 260 246 l 254 460 l 31 -28 l -100 24 l 131 463 l 72 547 l 171 735 l 296 707 l 276 533 q 469 675 374 631 l 593 558 q 411 -28 476 279 z "},"s":{"ha":588,"x_min":-83,"x_max":556,"o":"m 146 -29 q -83 6 42 -29 l -65 138 l 268 138 l 268 188 q -15 272 100 204 q 115 541 15 424 q 331 675 214 658 l 556 585 l 476 332 l 346 349 l 371 547 q 193 310 253 467 l 394 240 l 404 57 q 146 -29 321 -29 z "},"t":{"ha":500,"x_min":-62,"x_max":508,"o":"m 368 61 l 90 -29 l -62 61 l 121 529 l 43 529 l 65 633 l 163 633 l 239 826 l 403 763 l 354 633 l 508 633 l 475 529 l 314 529 l 165 131 l 338 181 l 368 61 z "},"u":{"ha":725,"x_min":-54,"x_max":685,"o":"m 485 -28 l 326 43 l 425 379 q 108 -28 250 78 l -54 65 l 138 674 l 313 599 q 146 178 283 414 l 203 149 l 529 665 l 685 614 l 485 -28 z "},"v":{"ha":656,"x_min":-58,"x_max":639,"o":"m 192 -28 l -58 57 l 135 674 l 311 596 q 128 142 279 435 l 210 114 q 358 366 289 217 q 468 674 426 515 l 639 615 q 462 183 590 367 q 192 -28 333 -1 z "},"w":{"ha":964,"x_min":-58,"x_max":946,"o":"m 501 -28 l 321 36 q 186 -28 249 -18 l -58 58 l 135 674 l 313 596 q 128 139 276 417 l 208 111 q 468 674 365 313 l 632 615 q 433 143 574 364 l 517 111 q 671 381 600 225 q 775 675 742 536 l 946 615 q 770 183 900 368 q 501 -28 640 -3 z "},"x":{"ha":649,"x_min":-90,"x_max":629,"o":"m 338 -28 l 225 203 l -28 -25 l -90 51 q 164 322 43 206 l 100 456 l 39 453 l 1 553 l 185 675 l 297 449 q 544 675 394 543 l 629 561 l 363 322 l 425 188 l 496 192 l 542 106 l 338 -28 z "},"y":{"ha":715,"x_min":-54,"x_max":681,"o":"m 407 -192 l 239 -269 l 58 -186 l 99 -72 l 247 -115 l 435 381 q 108 -28 258 74 l -54 65 l 138 674 l 306 597 q 146 178 274 394 l 203 149 l 535 665 l 563 651 l 681 601 l 407 -192 z "},"z":{"ha":603,"x_min":-87,"x_max":596,"o":"m 417 -28 l -50 8 l -87 108 l 332 499 l 71 522 l 93 665 l 471 626 l 524 674 l 596 596 q 386 346 515 471 q 122 135 257 221 l 453 129 l 417 -28 z "},"{":{"ha":424,"x_min":-64,"x_max":599,"o":"m 246 -67 l 204 -172 l -64 -72 l 96 353 l 25 453 l 61 549 l 169 551 l 342 1003 l 599 917 l 563 810 l 458 840 l 322 475 l 160 472 l 278 349 l 142 -24 l 246 -67 z "},"|":{"ha":400,"x_min":-153,"x_max":469,"o":"m 469 907 l 13 -256 l -153 -183 l 304 972 l 469 907 z "},"}":{"ha":424,"x_min":-206,"x_max":468,"o":"m 61 -179 l -206 -76 l -167 31 l -57 -7 l 83 364 l 253 379 l 133 489 l 272 853 l 174 900 l 217 1003 l 468 897 l 297 444 l 378 371 l 342 275 l 224 247 l 61 -179 z "},"~":{"ha":721,"x_min":-50,"x_max":714,"o":"m 407 192 l 296 232 l 186 406 l 19 260 l -50 351 l 203 582 l 300 511 l 386 361 l 428 333 l 644 551 l 714 468 l 518 242 l 407 192 z "}," ":{"ha":240,"x_min":0,"x_max":0,"o":""},"¡":{"ha":364,"x_min":-189,"x_max":346,"o":"m 99 481 l 163 657 l 346 589 l 283 411 l 99 481 m -189 -283 l 56 365 l 217 304 l -28 -343 l -189 -283 z "},"¢":{"ha":613,"x_min":-40,"x_max":601,"o":"m 482 83 l 243 10 l 175 -167 l 33 -96 l 71 -1 l -40 61 q 35 420 -51 264 q 269 635 122 576 q 339 660 301 649 l 400 815 l 539 764 l 490 635 l 601 585 l 515 296 l 389 317 l 435 554 l 433 553 q 237 374 318 492 q 142 121 156 256 l 456 199 l 482 83 z "},"£":{"ha":779,"x_min":-111,"x_max":856,"o":"m 578 -32 l 150 61 l 3 -28 l -111 89 l -47 242 l 63 219 q 85 280 69 236 q 111 347 101 324 l 17 346 l 15 453 l 154 454 q 372 808 250 674 q 653 972 493 942 q 856 813 775 907 l 744 482 l 589 517 l 668 815 q 351 453 488 733 l 549 456 l 546 354 l 304 350 q 239 185 260 242 l 615 107 l 578 -32 z "},"¤":{"ha":678,"x_min":-112,"x_max":776,"o":"m 318 10 l 297 165 q 282 163 290 164 q 263 162 274 163 q 247 161 253 161 l 104 207 l -39 93 l -112 190 l 15 296 q 74 568 17 446 q 225 753 132 690 l 207 910 l 326 921 l 346 781 q 399 788 363 785 l 569 721 l 708 831 l 776 729 l 636 617 q 569 363 626 474 q 422 193 511 251 l 442 28 l 318 10 m 461 640 l 367 675 q 246 499 294 601 q 186 293 197 396 l 276 264 q 397 433 347 333 q 461 640 446 533 z "},"¥":{"ha":710,"x_min":8,"x_max":792,"o":"m 588 185 l 382 242 l 281 -28 l 97 49 l 196 293 l 8 346 l 42 465 l 179 426 l 188 911 l 374 972 l 351 433 l 638 972 l 792 911 l 490 339 l 622 301 l 588 185 z "},"¦":{"ha":400,"x_min":-153,"x_max":469,"o":"m 469 907 l 269 397 l 104 465 l 304 972 l 469 907 m 46 319 l 211 251 l 13 -256 l -153 -183 l 46 319 z "},"§":{"ha":649,"x_min":-54,"x_max":675,"o":"m 421 -29 q -54 76 179 -22 l -8 231 q 319 125 189 150 l 351 206 l 54 318 q 143 579 63 469 l 85 604 q 191 835 108 729 q 392 971 274 942 q 675 857 517 938 l 622 713 q 403 796 511 764 q 303 657 344 749 l 553 556 l 461 303 l 536 275 l 421 -29 m 325 356 l 372 483 l 279 524 q 225 392 240 476 l 325 356 z "},"¨":{"ha":694,"x_min":471,"x_max":839,"o":"m 629 915 l 589 714 l 471 746 q 503 944 464 850 l 629 915 m 839 915 l 799 714 l 681 746 q 713 944 674 850 l 839 915 z "},"©":{"ha":931,"x_min":40,"x_max":882,"o":"m 40 397 q 111 667 40 533 q 296 884 182 800 q 526 968 410 968 q 779 842 676 968 q 882 543 882 715 q 814 273 882 406 q 633 56 746 140 q 397 -28 519 -28 q 144 99 247 -28 q 40 397 40 225 m 785 529 q 707 769 785 668 q 521 871 629 871 q 261 724 385 871 q 138 408 138 576 q 217 169 138 269 q 410 68 297 68 q 584 136 496 68 q 728 313 672 204 q 785 529 785 421 m 621 290 l 353 207 l 235 275 q 306 591 225 457 q 511 754 386 725 l 690 685 l 622 460 l 522 476 l 560 654 q 436 517 486 607 q 376 325 386 428 l 600 386 l 621 290 z "},"ª":{"ha":307,"x_min":76,"x_max":469,"o":"m 376 650 l 283 682 l 328 819 l 211 650 l 76 688 q 135 874 76 783 q 267 972 193 964 l 361 911 l 385 967 l 469 942 l 376 650 m 321 876 l 293 900 q 172 719 207 849 l 193 710 l 321 876 z "},"«":{"ha":740,"x_min":-72,"x_max":681,"o":"m 564 24 l 288 232 l 343 429 l 639 596 l 681 486 l 418 338 l 643 174 l 564 24 m 206 15 l -72 224 l -15 421 l 279 594 l 321 485 l 58 331 l 283 164 l 206 15 z "},"¬":{"ha":668,"x_min":15,"x_max":621,"o":"m 553 175 l 438 199 l 472 381 l 15 481 l 47 608 l 621 485 l 553 175 z "},"­":{"ha":0,"x_min":0,"x_max":0,"o":""},"®":{"ha":931,"x_min":40,"x_max":882,"o":"m 397 -28 q 144 99 247 -28 q 40 397 40 225 q 111 667 40 533 q 296 884 182 800 q 526 968 410 968 q 779 842 676 968 q 882 543 882 715 q 814 273 882 406 q 633 56 746 140 q 397 -28 519 -28 m 521 871 q 261 724 385 871 q 138 408 138 576 q 217 169 138 269 q 410 68 297 68 q 584 136 496 68 q 728 313 672 204 q 785 529 785 421 q 707 769 785 668 q 521 871 629 871 m 535 196 l 379 379 l 376 381 l 314 210 l 207 253 l 357 654 l 349 700 q 643 757 461 749 l 700 640 q 631 509 682 569 q 504 411 581 449 l 621 286 l 535 196 m 408 475 q 593 644 547 518 l 463 617 l 408 475 z "},"¯":{"ha":694,"x_min":444,"x_max":800,"o":"m 444 763 l 471 876 l 800 876 l 775 763 l 444 763 z "},"°":{"ha":261,"x_min":97,"x_max":413,"o":"m 97 657 q 147 868 92 779 q 285 972 203 957 l 413 928 q 363 726 418 813 q 225 624 307 639 l 97 657 m 229 681 q 302 766 274 710 q 335 885 331 822 l 276 913 q 203 819 232 881 q 174 701 174 758 l 229 681 z "},"±":{"ha":615,"x_min":-106,"x_max":615,"o":"m 588 489 l 374 535 l 314 251 l 156 292 l 218 569 l 13 615 l 42 743 l 247 700 l 304 953 l 457 918 l 403 665 l 615 619 l 588 489 m 499 125 l 471 -6 l -106 121 l -78 249 l 499 125 z "},"²":{"ha":338,"x_min":85,"x_max":439,"o":"m 93 488 l 85 551 q 306 849 229 715 l 275 864 q 210 760 239 817 l 125 801 q 250 972 181 911 l 439 893 q 240 589 381 767 q 360 606 296 594 l 372 515 q 93 488 261 488 z "},"³":{"ha":340,"x_min":108,"x_max":428,"o":"m 390 533 q 119 490 297 482 l 108 582 q 297 600 207 582 l 293 642 l 160 631 l 153 706 l 206 711 q 299 854 258 775 l 281 863 q 215 758 243 811 l 126 800 q 250 972 181 910 l 428 886 q 331 721 383 794 l 369 724 l 390 533 z "},"´":{"ha":694,"x_min":422,"x_max":771,"o":"m 771 810 l 454 731 l 422 832 l 728 939 l 771 810 z "},"¶":{"ha":776,"x_min":31,"x_max":914,"o":"m 472 -28 l 329 25 l 639 803 l 501 799 l 174 -28 l 31 25 l 218 490 q 63 706 104 594 l 142 917 q 865 972 481 981 l 914 811 l 792 807 l 472 -28 z "},"·":{"ha":694,"x_min":128,"x_max":374,"o":"m 374 482 l 311 306 l 128 374 l 190 551 l 374 482 z "},"¸":{"ha":694,"x_min":126,"x_max":443,"o":"m 365 -247 l 126 -162 l 153 -89 l 296 -142 l 322 -85 l 183 -14 l 219 79 l 288 44 l 301 6 l 443 -54 l 365 -247 z "},"¹":{"ha":299,"x_min":108,"x_max":410,"o":"m 256 488 l 138 525 l 275 858 l 261 867 q 192 756 228 822 l 108 801 q 232 972 163 907 l 410 894 l 256 488 z "},"º":{"ha":244,"x_min":83,"x_max":399,"o":"m 83 692 q 124 878 78 799 q 243 972 171 958 l 399 922 q 355 740 401 817 q 238 651 308 664 l 83 692 m 215 711 q 303 890 286 774 l 261 910 q 203 826 226 876 q 175 725 179 775 l 215 711 z "},"»":{"ha":742,"x_min":-50,"x_max":703,"o":"m 351 54 l 310 164 l 572 318 l 347 485 l 425 633 l 703 425 l 646 228 l 351 54 m -8 53 l -50 163 l 213 310 l -12 475 l 65 625 l 343 417 l 286 219 l -8 53 z "},"¼":{"ha":835,"x_min":-19,"x_max":788,"o":"m 221 488 l 103 525 l 240 858 l 226 867 q 157 756 193 822 l 74 801 q 197 972 128 907 l 375 894 l 221 488 m 644 972 l 735 910 l 72 -28 l -19 33 l 644 972 m 631 -17 l 515 19 l 564 136 l 408 194 l 514 469 l 625 435 l 546 231 l 594 211 l 683 426 l 788 399 l 631 -17 z "},"½":{"ha":779,"x_min":-19,"x_max":735,"o":"m 221 488 l 103 525 l 240 858 l 226 867 q 157 756 193 822 l 74 801 q 197 972 128 907 l 375 894 l 221 488 m 644 972 l 735 910 l 72 -28 l -19 33 l 644 972 m 372 -15 l 364 49 q 585 346 508 213 l 554 361 q 489 257 518 314 l 404 299 q 529 469 460 408 l 718 390 q 519 86 660 264 q 639 103 575 92 l 651 13 q 372 -15 540 -15 z "},"¾":{"ha":928,"x_min":74,"x_max":881,"o":"m 371 533 q 100 490 278 482 l 89 582 q 278 600 188 582 l 274 642 l 140 631 l 133 706 l 186 711 q 279 854 239 775 l 261 863 q 196 758 224 811 l 107 800 q 231 972 161 910 l 408 886 q 311 721 364 794 l 350 724 l 371 533 m 738 972 l 828 910 l 165 -28 l 74 33 l 738 972 m 724 -17 l 608 19 l 657 136 l 501 194 l 607 469 l 718 435 l 639 231 l 688 211 l 776 426 l 881 399 l 724 -17 z "},"¿":{"ha":471,"x_min":-233,"x_max":435,"o":"m 189 481 l 251 657 l 435 589 l 372 411 l 189 481 m 1 -343 l -99 -253 l -233 -132 l -232 -131 l -233 -131 q 185 365 -104 97 l 299 265 q -58 -146 57 33 l -14 -193 q 247 56 115 -103 l 364 -44 q 1 -343 196 -258 z "},"À":{"ha":764,"x_min":-133,"x_max":782,"o":"m 433 1094 l 476 1224 l 782 1117 l 750 1015 l 433 1094 m 415 21 l 443 263 l 129 183 l 4 -28 l -133 69 l 414 972 l 686 865 l 601 -24 l 415 21 m 214 328 l 458 382 l 503 819 l 214 328 z "},"Á":{"ha":764,"x_min":-133,"x_max":763,"o":"m 763 1107 l 446 1028 l 414 1129 l 719 1236 l 763 1107 m 415 21 l 443 263 l 129 183 l 4 -28 l -133 69 l 414 972 l 686 865 l 601 -24 l 415 21 m 214 328 l 458 382 l 503 819 l 214 328 z "},"Â":{"ha":764,"x_min":-133,"x_max":817,"o":"m 772 1017 l 638 1092 l 417 1025 l 381 1117 l 657 1224 l 817 1108 l 772 1017 m 415 21 l 443 263 l 129 183 l 4 -28 l -133 69 l 414 972 l 686 865 l 601 -24 l 415 21 m 214 328 l 458 382 l 503 819 l 214 328 z "},"Ã":{"ha":764,"x_min":-133,"x_max":815,"o":"m 669 1022 l 543 1089 l 449 1029 l 397 1113 l 542 1219 l 651 1151 l 764 1219 l 815 1143 l 669 1022 m 415 21 l 443 263 l 129 183 l 4 -28 l -133 69 l 414 972 l 686 865 l 601 -24 l 415 21 m 214 328 l 458 382 l 503 819 l 214 328 z "},"Ä":{"ha":764,"x_min":-133,"x_max":831,"o":"m 621 1213 l 581 1011 l 463 1043 q 494 1242 456 1147 l 621 1213 m 831 1213 l 790 1011 l 672 1043 q 704 1242 665 1147 l 831 1213 m 415 21 l 443 263 l 129 183 l 4 -28 l -133 69 l 414 972 l 686 865 l 601 -24 l 415 21 m 214 328 l 458 382 l 503 819 l 214 328 z "},"Å":{"ha":764,"x_min":-133,"x_max":743,"o":"m 476 1018 q 508 1170 471 1106 q 601 1244 546 1235 l 743 1200 q 709 1055 747 1118 q 617 981 671 992 l 476 1018 m 611 1054 q 658 1150 653 1081 l 603 1168 q 558 1068 558 1135 l 611 1054 m 415 21 l 443 263 l 129 183 l 4 -28 l -133 69 l 414 972 l 686 865 l 601 -24 l 415 21 m 214 328 l 458 382 l 503 819 l 214 328 z "},"Æ":{"ha":1025,"x_min":-129,"x_max":1085,"o":"m 558 -28 l 368 131 l 417 253 l 167 183 l 6 -28 l -129 69 l 521 872 q 1057 969 781 965 l 1085 832 l 801 771 l 697 489 q 906 538 794 524 l 928 435 l 642 338 l 568 142 l 918 247 l 953 110 l 558 -28 m 281 338 l 467 383 l 597 717 l 526 658 l 281 338 z "},"Ç":{"ha":753,"x_min":-22,"x_max":803,"o":"m 294 -222 l 42 -165 l 65 -49 l 271 -90 l 281 -64 l 167 -6 l -22 69 q 47 480 -18 290 q 247 805 113 669 q 564 972 382 940 q 803 832 721 910 l 672 449 l 515 490 l 618 836 q 168 126 226 718 l 592 292 l 638 143 l 290 1 l 364 -36 l 294 -222 z "},"È":{"ha":663,"x_min":-47,"x_max":719,"o":"m 332 1094 l 375 1224 l 681 1117 l 649 1015 l 332 1094 m 143 -28 l -47 131 l 204 775 l 179 872 q 693 969 407 965 l 719 832 l 381 757 l 285 496 q 554 550 388 531 l 576 439 l 226 340 l 151 139 l 531 231 l 561 83 l 143 -28 z "},"É":{"ha":663,"x_min":-47,"x_max":719,"o":"m 661 1107 l 344 1028 l 313 1129 l 618 1236 l 661 1107 m 143 -28 l -47 131 l 204 775 l 179 872 q 693 969 407 965 l 719 832 l 381 757 l 285 496 q 554 550 388 531 l 576 439 l 226 340 l 151 139 l 531 231 l 561 83 l 143 -28 z "},"Ê":{"ha":667,"x_min":-43,"x_max":724,"o":"m 675 1017 l 540 1092 l 319 1025 l 283 1117 l 560 1224 l 719 1108 l 675 1017 m 147 -28 l -43 131 l 208 775 l 183 872 q 697 969 411 965 l 724 832 l 385 757 l 289 496 q 558 550 392 531 l 581 439 l 231 340 l 156 139 l 535 231 l 565 83 l 147 -28 z "},"Ë":{"ha":663,"x_min":-47,"x_max":729,"o":"m 519 1213 l 479 1011 l 361 1043 q 393 1242 354 1147 l 519 1213 m 729 1213 l 689 1011 l 571 1043 q 603 1242 564 1147 l 729 1213 m 143 -28 l -47 131 l 204 775 l 179 872 q 693 969 407 965 l 719 832 l 381 757 l 285 496 q 554 550 388 531 l 576 439 l 226 340 l 151 139 l 531 231 l 561 83 l 143 -28 z "},"Ì":{"ha":378,"x_min":-75,"x_max":575,"o":"m 226 1094 l 269 1224 l 575 1117 l 543 1015 l 226 1094 m 447 913 l 106 -28 l -75 49 l 286 972 l 447 913 z "},"Í":{"ha":378,"x_min":-75,"x_max":556,"o":"m 556 1107 l 239 1028 l 207 1129 l 513 1236 l 556 1107 m 447 913 l 106 -28 l -75 49 l 286 972 l 447 913 z "},"Î":{"ha":378,"x_min":-75,"x_max":610,"o":"m 565 1017 l 431 1092 l 210 1025 l 174 1117 l 450 1224 l 610 1108 l 565 1017 m 447 913 l 106 -28 l -75 49 l 286 972 l 447 913 z "},"Ï":{"ha":378,"x_min":-75,"x_max":624,"o":"m 414 1213 l 374 1011 l 256 1043 q 288 1242 249 1147 l 414 1213 m 624 1213 l 583 1011 l 465 1043 q 497 1242 458 1147 l 624 1213 m 447 913 l 106 -28 l -75 49 l 286 972 l 447 913 z "},"Ð":{"ha":817,"x_min":-18,"x_max":853,"o":"m 182 -29 l -18 131 l 74 368 l 8 354 l -17 472 l 125 501 l 232 775 l 207 872 q 746 972 413 958 l 853 757 q 622 256 779 444 q 182 -29 464 67 m 482 456 l 282 410 l 183 144 q 514 401 389 233 q 696 821 639 568 l 410 757 l 329 542 l 460 572 l 482 456 z "},"Ñ":{"ha":846,"x_min":-75,"x_max":917,"o":"m 701 1022 l 575 1089 l 481 1029 l 429 1113 l 574 1219 l 683 1151 l 796 1219 l 847 1143 l 701 1022 m 575 -28 l 351 63 l 353 703 l 90 -28 l -75 49 l 286 972 l 489 889 l 481 213 l 771 972 l 917 913 l 575 -28 z "},"Ò":{"ha":813,"x_min":-19,"x_max":865,"o":"m 517 1094 l 560 1224 l 865 1117 l 833 1015 l 517 1094 m 224 -31 l -19 69 q 22 386 -17 235 q 133 663 61 538 q 323 870 206 788 q 589 972 440 953 l 833 872 q 792 556 831 706 q 680 280 753 406 q 490 72 607 154 q 224 -31 372 -11 m 165 111 q 379 200 289 135 q 524 365 469 265 q 607 578 578 465 q 647 832 636 692 q 165 111 215 747 z "},"Ó":{"ha":813,"x_min":-19,"x_max":846,"o":"m 846 1107 l 529 1028 l 497 1129 l 803 1236 l 846 1107 m 224 -31 l -19 69 q 22 386 -17 235 q 133 663 61 538 q 323 870 206 788 q 589 972 440 953 l 833 872 q 792 556 831 706 q 680 280 753 406 q 490 72 607 154 q 224 -31 372 -11 m 165 111 q 379 200 289 135 q 524 365 469 265 q 607 578 578 465 q 647 832 636 692 q 165 111 215 747 z "},"Ô":{"ha":813,"x_min":-19,"x_max":900,"o":"m 856 1017 l 721 1092 l 500 1025 l 464 1117 l 740 1224 l 900 1108 l 856 1017 m 224 -31 l -19 69 q 22 386 -17 235 q 133 663 61 538 q 323 870 206 788 q 589 972 440 953 l 833 872 q 792 556 831 706 q 680 280 753 406 q 490 72 607 154 q 224 -31 372 -11 m 165 111 q 379 200 289 135 q 524 365 469 265 q 607 578 578 465 q 647 832 636 692 q 165 111 215 747 z "},"Õ":{"ha":813,"x_min":-19,"x_max":899,"o":"m 753 1022 l 626 1089 l 532 1029 l 481 1113 l 625 1219 l 735 1151 l 847 1219 l 899 1143 l 753 1022 m 224 -31 l -19 69 q 22 386 -17 235 q 133 663 61 538 q 323 870 206 788 q 589 972 440 953 l 833 872 q 792 556 831 706 q 680 280 753 406 q 490 72 607 154 q 224 -31 372 -11 m 165 111 q 379 200 289 135 q 524 365 469 265 q 607 578 578 465 q 647 832 636 692 q 165 111 215 747 z "},"Ö":{"ha":813,"x_min":-19,"x_max":914,"o":"m 704 1213 l 664 1011 l 546 1043 q 578 1242 539 1147 l 704 1213 m 914 1213 l 874 1011 l 756 1043 q 788 1242 749 1147 l 914 1213 m 224 -31 l -19 69 q 22 386 -17 235 q 133 663 61 538 q 323 870 206 788 q 589 972 440 953 l 833 872 q 792 556 831 706 q 680 280 753 406 q 490 72 607 154 q 224 -31 372 -11 m 165 111 q 379 200 289 135 q 524 365 469 265 q 607 578 578 465 q 647 832 636 692 q 165 111 215 747 z "},"×":{"ha":618,"x_min":-97,"x_max":599,"o":"m 358 3 l 215 229 l -32 47 l -97 153 l 147 336 l 3 565 l 136 647 l 278 431 l 529 619 l 599 510 l 346 324 l 501 86 l 358 3 z "},"Ø":{"ha":832,"x_min":-110,"x_max":949,"o":"m 121 15 l -17 -139 l -110 -44 l -10 69 q 31 386 -7 236 q 142 662 69 536 q 333 870 215 788 q 599 972 450 953 l 740 914 l 860 1049 l 949 958 l 842 838 q 794 531 835 676 q 681 266 754 386 q 493 67 608 146 q 233 -31 378 -12 l 121 15 m 175 111 q 389 200 299 135 q 533 365 479 265 q 617 578 588 465 q 657 832 646 692 q 175 111 225 747 z "},"Ù":{"ha":790,"x_min":-58,"x_max":861,"o":"m 436 1094 l 479 1224 l 785 1117 l 753 1015 l 436 1094 m 519 -28 l 350 36 l 408 190 q 101 -28 226 14 l -58 104 l 281 972 l 442 913 l 158 133 l 472 372 l 701 972 l 861 913 l 519 -28 z "},"Ú":{"ha":790,"x_min":-58,"x_max":861,"o":"m 765 1107 l 449 1028 l 417 1129 l 722 1236 l 765 1107 m 519 -28 l 350 36 l 408 190 q 101 -28 226 14 l -58 104 l 281 972 l 442 913 l 158 133 l 472 372 l 701 972 l 861 913 l 519 -28 z "},"Û":{"ha":790,"x_min":-58,"x_max":861,"o":"m 775 1017 l 640 1092 l 419 1025 l 383 1117 l 660 1224 l 819 1108 l 775 1017 m 519 -28 l 350 36 l 408 190 q 101 -28 226 14 l -58 104 l 281 972 l 442 913 l 158 133 l 472 372 l 701 972 l 861 913 l 519 -28 z "},"Ü":{"ha":790,"x_min":-58,"x_max":861,"o":"m 624 1213 l 583 1011 l 465 1043 q 497 1242 458 1147 l 624 1213 m 833 1213 l 793 1011 l 675 1043 q 707 1242 668 1147 l 833 1213 m 519 -28 l 350 36 l 408 190 q 101 -28 226 14 l -58 104 l 281 972 l 442 913 l 158 133 l 472 372 l 701 972 l 861 913 l 519 -28 z "},"Ý":{"ha":618,"x_min":92,"x_max":753,"o":"m 636 1107 l 319 1028 l 288 1129 l 593 1236 l 636 1107 m 264 -28 l 92 49 l 257 349 l 103 389 l 144 972 l 326 947 l 292 413 l 599 972 l 753 911 l 264 -28 z "},"Þ":{"ha":806,"x_min":-72,"x_max":826,"o":"m 108 -28 l -72 49 l 196 735 l 289 972 l 450 913 l 400 775 q 726 814 531 803 l 826 604 q 617 328 782 443 q 183 178 451 214 l 108 -28 m 242 342 q 669 661 593 408 l 331 585 l 242 342 z "},"ß":{"ha":792,"x_min":-211,"x_max":701,"o":"m -186 -189 l -211 -106 l -117 -58 l 194 742 q 244 844 215 793 q 526 972 319 981 l 701 738 l 517 525 l 668 258 l 660 57 q 425 -26 581 -26 q 222 6 338 -26 l 225 138 l 518 138 l 522 215 q 347 524 383 335 l 517 715 l 438 826 l 386 790 l 108 33 q 61 -65 92 -14 q -74 -178 13 -147 q -124 -192 -96 -187 q -186 -189 -156 -196 z "},"à":{"ha":742,"x_min":-72,"x_max":693,"o":"m 315 797 l 358 926 l 664 819 l 632 718 l 315 797 m 492 -28 l 324 43 l 414 338 l 163 -28 l -72 56 q -14 330 -72 190 q 142 567 44 469 q 343 675 239 665 l 492 543 l 543 661 l 693 607 l 492 -28 m 433 475 l 382 521 q 217 362 293 471 q 107 121 140 253 l 146 101 l 433 475 z "},"á":{"ha":742,"x_min":-72,"x_max":693,"o":"m 644 810 l 328 731 l 296 832 l 601 939 l 644 810 m 492 -28 l 324 43 l 414 338 l 163 -28 l -72 56 q -14 330 -72 190 q 142 567 44 469 q 343 675 239 665 l 492 543 l 543 661 l 693 607 l 492 -28 m 433 475 l 382 521 q 217 362 293 471 q 107 121 140 253 l 146 101 l 433 475 z "},"â":{"ha":742,"x_min":-72,"x_max":699,"o":"m 654 719 l 519 794 l 299 728 l 263 819 l 539 926 l 699 811 l 654 719 m 492 -28 l 324 43 l 414 338 l 163 -28 l -72 56 q -14 330 -72 190 q 142 567 44 469 q 343 675 239 665 l 492 543 l 543 661 l 693 607 l 492 -28 m 433 475 l 382 521 q 217 362 293 471 q 107 121 140 253 l 146 101 l 433 475 z "},"ã":{"ha":742,"x_min":-72,"x_max":697,"o":"m 551 725 l 425 792 l 331 732 l 279 815 l 424 922 l 533 854 l 646 922 l 697 846 l 551 725 m 492 -28 l 324 43 l 414 338 l 163 -28 l -72 56 q -14 330 -72 190 q 142 567 44 469 q 343 675 239 665 l 492 543 l 543 661 l 693 607 l 492 -28 m 433 475 l 382 521 q 217 362 293 471 q 107 121 140 253 l 146 101 l 433 475 z "},"ä":{"ha":742,"x_min":-72,"x_max":713,"o":"m 503 915 l 463 714 l 344 746 q 376 944 338 850 l 503 915 m 713 915 l 672 714 l 554 746 q 586 944 547 850 l 713 915 m 492 -28 l 324 43 l 414 338 l 163 -28 l -72 56 q -14 330 -72 190 q 142 567 44 469 q 343 675 239 665 l 492 543 l 543 661 l 693 607 l 492 -28 m 433 475 l 382 521 q 217 362 293 471 q 107 121 140 253 l 146 101 l 433 475 z "},"å":{"ha":742,"x_min":-72,"x_max":693,"o":"m 358 721 q 390 873 353 808 q 483 947 428 938 l 625 903 q 591 758 629 821 q 499 683 553 694 l 358 721 m 493 757 q 540 853 535 783 l 485 871 q 440 771 440 838 l 493 757 m 492 -28 l 324 43 l 414 338 l 163 -28 l -72 56 q -14 330 -72 190 q 142 567 44 469 q 343 675 239 665 l 492 543 l 543 661 l 693 607 l 492 -28 m 433 475 l 382 521 q 217 362 293 471 q 107 121 140 253 l 146 101 l 433 475 z "},"æ":{"ha":989,"x_min":-53,"x_max":947,"o":"m 513 -29 l 492 -15 l 492 -14 l 368 61 q 407 358 358 217 l 182 -28 l -53 56 q 6 330 -51 190 q 162 567 64 469 q 364 675 260 665 l 547 618 l 518 551 q 719 675 606 647 l 947 585 l 857 292 l 558 232 q 540 121 543 182 l 832 199 l 858 83 l 513 -29 m 444 543 l 399 565 q 240 394 314 518 q 126 121 167 271 l 165 101 l 444 543 m 586 313 l 736 347 l 782 554 l 781 554 q 586 313 651 469 z "},"ç":{"ha":596,"x_min":-35,"x_max":553,"o":"m 201 -222 l -22 -165 l 1 -49 l 178 -89 l 185 -71 l 117 -28 l -35 61 q 58 469 -47 296 q 328 675 163 643 l 553 585 l 467 296 l 340 317 l 386 554 l 385 553 q 225 372 290 488 q 147 122 160 256 l 438 199 l 464 83 l 196 -6 l 267 -47 l 201 -222 z "},"è":{"ha":596,"x_min":-49,"x_max":597,"o":"m 249 797 l 292 926 l 597 819 l 565 718 l 249 797 m 450 83 l 106 -29 l -49 61 q 44 469 -61 296 q 314 675 149 643 l 539 585 l 450 292 l 153 233 q 133 122 135 176 l 424 199 l 450 83 m 182 313 l 329 347 l 374 554 l 372 554 q 182 313 247 469 z "},"é":{"ha":596,"x_min":-49,"x_max":578,"o":"m 578 810 l 261 731 l 229 832 l 535 939 l 578 810 m 450 83 l 106 -29 l -49 61 q 44 469 -61 296 q 314 675 149 643 l 539 585 l 450 292 l 153 233 q 133 122 135 176 l 424 199 l 450 83 m 182 313 l 329 347 l 374 554 l 372 554 q 182 313 247 469 z "},"ê":{"ha":596,"x_min":-49,"x_max":632,"o":"m 588 719 l 453 794 l 232 728 l 196 819 l 472 926 l 632 811 l 588 719 m 450 83 l 106 -29 l -49 61 q 44 469 -61 296 q 314 675 149 643 l 539 585 l 450 292 l 153 233 q 133 122 135 176 l 424 199 l 450 83 m 182 313 l 329 347 l 374 554 l 372 554 q 182 313 247 469 z "},"ë":{"ha":596,"x_min":-49,"x_max":646,"o":"m 436 915 l 396 714 l 278 746 q 310 944 271 850 l 436 915 m 646 915 l 606 714 l 488 746 q 519 944 481 850 l 646 915 m 450 83 l 106 -29 l -49 61 q 44 469 -61 296 q 314 675 149 643 l 539 585 l 450 292 l 153 233 q 133 122 135 176 l 424 199 l 450 83 m 182 313 l 329 347 l 374 554 l 372 554 q 182 313 247 469 z "},"ì":{"ha":356,"x_min":-85,"x_max":474,"o":"m 125 797 l 168 926 l 474 819 l 442 718 l 125 797 m 90 -28 l -85 49 l 171 674 l 336 610 l 90 -28 z "},"í":{"ha":356,"x_min":-85,"x_max":454,"o":"m 454 810 l 138 731 l 106 832 l 411 939 l 454 810 m 90 -28 l -85 49 l 171 674 l 336 610 l 90 -28 z "},"î":{"ha":356,"x_min":-85,"x_max":508,"o":"m 464 719 l 329 794 l 108 728 l 72 819 l 349 926 l 508 811 l 464 719 m 90 -28 l -85 49 l 171 674 l 336 610 l 90 -28 z "},"ï":{"ha":356,"x_min":-85,"x_max":522,"o":"m 313 915 l 272 714 l 154 746 q 186 944 147 850 l 313 915 m 522 915 l 482 714 l 364 746 q 396 944 357 850 l 522 915 m 90 -28 l -85 49 l 171 674 l 336 610 l 90 -28 z "},"ð":{"ha":675,"x_min":-32,"x_max":628,"o":"m 240 -28 l -32 65 q 55 472 -46 299 q 313 675 156 646 l 440 610 l 369 746 l 256 713 l 222 817 l 322 846 l 279 931 l 438 972 l 478 883 l 599 918 l 628 815 l 519 782 l 607 582 q 504 170 608 353 q 240 -28 400 -12 m 213 93 q 347 271 286 153 q 428 504 408 389 l 335 546 q 202 352 256 468 q 138 122 149 236 l 213 93 z "},"ñ":{"ha":738,"x_min":-85,"x_max":700,"o":"m 554 725 l 428 792 l 333 732 l 282 815 l 426 922 l 536 854 l 649 922 l 700 846 l 554 725 m 499 -28 l 317 49 q 479 454 346 231 l 443 485 l 158 149 l 92 -28 l -85 49 l 167 660 l 328 596 l 236 354 q 538 675 408 582 l 683 558 l 499 -28 z "},"ò":{"ha":656,"x_min":-47,"x_max":626,"o":"m 278 797 l 321 926 l 626 819 l 594 718 l 278 797 m -47 65 q 41 472 -60 299 q 299 675 142 646 l 574 564 q 478 167 579 333 q 222 -28 376 1 l -47 65 m 196 93 q 326 278 274 167 q 396 511 379 390 l 318 546 q 185 352 239 468 q 121 122 132 236 l 196 93 z "},"ó":{"ha":656,"x_min":-47,"x_max":607,"o":"m 607 810 l 290 731 l 258 832 l 564 939 l 607 810 m -47 65 q 41 472 -60 299 q 299 675 142 646 l 574 564 q 478 167 579 333 q 222 -28 376 1 l -47 65 m 196 93 q 326 278 274 167 q 396 511 379 390 l 318 546 q 185 352 239 468 q 121 122 132 236 l 196 93 z "},"ô":{"ha":656,"x_min":-47,"x_max":661,"o":"m 617 719 l 482 794 l 261 728 l 225 819 l 501 926 l 661 811 l 617 719 m -47 65 q 41 472 -60 299 q 299 675 142 646 l 574 564 q 478 167 579 333 q 222 -28 376 1 l -47 65 m 196 93 q 326 278 274 167 q 396 511 379 390 l 318 546 q 185 352 239 468 q 121 122 132 236 l 196 93 z "},"õ":{"ha":656,"x_min":-47,"x_max":660,"o":"m 514 725 l 388 792 l 293 732 l 242 815 l 386 922 l 496 854 l 608 922 l 660 846 l 514 725 m -47 65 q 41 472 -60 299 q 299 675 142 646 l 574 564 q 478 167 579 333 q 222 -28 376 1 l -47 65 m 196 93 q 326 278 274 167 q 396 511 379 390 l 318 546 q 185 352 239 468 q 121 122 132 236 l 196 93 z "},"ö":{"ha":656,"x_min":-47,"x_max":675,"o":"m 465 915 l 425 714 l 307 746 q 339 944 300 850 l 465 915 m 675 915 l 635 714 l 517 746 q 549 944 510 850 l 675 915 m -47 65 q 41 472 -60 299 q 299 675 142 646 l 574 564 q 478 167 579 333 q 222 -28 376 1 l -47 65 m 196 93 q 326 278 274 167 q 396 511 379 390 l 318 546 q 185 352 239 468 q 121 122 132 236 l 196 93 z "},"÷":{"ha":635,"x_min":-40,"x_max":567,"o":"m 458 638 l 397 465 l 219 531 l 281 704 l 458 638 m 567 346 l 538 215 l -40 342 l -10 469 l 567 346 m 304 149 l 243 -24 l 65 43 l 125 217 l 304 149 z "},"ø":{"ha":675,"x_min":-117,"x_max":682,"o":"m 240 -28 l 57 36 l -47 -60 l -117 29 l -31 110 q 68 487 -32 328 q 315 675 168 646 l 504 599 l 611 696 l 682 611 l 590 525 q 488 156 588 310 q 240 -28 388 1 m 214 93 q 344 278 292 167 q 414 511 397 390 l 336 546 q 203 352 257 468 q 139 122 150 236 l 214 93 z "},"ù":{"ha":726,"x_min":-44,"x_max":694,"o":"m 304 797 l 347 926 l 653 819 l 621 718 l 304 797 m 494 -28 l 336 43 l 435 379 q 118 -28 260 78 l -44 65 l 147 674 l 322 599 q 156 178 293 414 l 213 149 l 539 665 l 694 614 l 494 -28 z "},"ú":{"ha":726,"x_min":-44,"x_max":694,"o":"m 633 810 l 317 731 l 285 832 l 590 939 l 633 810 m 494 -28 l 336 43 l 435 379 q 118 -28 260 78 l -44 65 l 147 674 l 322 599 q 156 178 293 414 l 213 149 l 539 665 l 694 614 l 494 -28 z "},"û":{"ha":726,"x_min":-44,"x_max":694,"o":"m 643 719 l 508 794 l 288 728 l 251 819 l 528 926 l 688 811 l 643 719 m 494 -28 l 336 43 l 435 379 q 118 -28 260 78 l -44 65 l 147 674 l 322 599 q 156 178 293 414 l 213 149 l 539 665 l 694 614 l 494 -28 z "},"ü":{"ha":726,"x_min":-44,"x_max":701,"o":"m 492 915 l 451 714 l 333 746 q 365 944 326 850 l 492 915 m 701 915 l 661 714 l 543 746 q 575 944 536 850 l 701 915 m 494 -28 l 336 43 l 435 379 q 118 -28 260 78 l -44 65 l 147 674 l 322 599 q 156 178 293 414 l 213 149 l 539 665 l 694 614 l 494 -28 z "},"ý":{"ha":717,"x_min":-54,"x_max":681,"o":"m 628 810 l 311 731 l 279 832 l 585 939 l 628 810 m 407 -192 l 239 -269 l 58 -186 l 99 -72 l 247 -115 l 435 381 q 108 -28 258 74 l -54 65 l 138 674 l 306 597 q 146 178 274 394 l 203 149 l 535 665 l 563 651 l 681 601 l 407 -192 z "},"þ":{"ha":757,"x_min":-168,"x_max":713,"o":"m 297 -28 l 143 110 l -6 -275 l -168 -176 l 292 972 l 454 908 l 218 306 l 478 676 l 713 582 q 653 313 711 450 q 499 79 596 175 q 297 -28 401 -17 m 207 171 l 257 126 q 424 284 347 178 q 533 518 500 390 l 489 540 l 207 171 z "},"ÿ":{"ha":717,"x_min":-54,"x_max":696,"o":"m 486 915 l 446 714 l 328 746 q 360 944 321 850 l 486 915 m 696 915 l 656 714 l 538 746 q 569 944 531 850 l 696 915 m 407 -192 l 239 -269 l 58 -186 l 99 -72 l 247 -115 l 435 381 q 108 -28 258 74 l -54 65 l 138 674 l 306 597 q 146 178 274 394 l 203 149 l 535 665 l 563 651 l 681 601 l 407 -192 z "},"Ā":{"ha":764,"x_min":-133,"x_max":792,"o":"m 436 1060 l 463 1174 l 792 1174 l 767 1060 l 436 1060 m 415 21 l 443 263 l 129 183 l 4 -28 l -133 69 l 414 972 l 686 865 l 601 -24 l 415 21 m 214 328 l 458 382 l 503 819 l 214 328 z "},"ā":{"ha":742,"x_min":-72,"x_max":693,"o":"m 318 763 l 344 876 l 674 876 l 649 763 l 318 763 m 492 -28 l 324 43 l 414 338 l 163 -28 l -72 56 q -14 330 -72 190 q 142 567 44 469 q 343 675 239 665 l 492 543 l 543 661 l 693 607 l 492 -28 m 433 475 l 382 521 q 217 362 293 471 q 107 121 140 253 l 146 101 l 433 475 z "},"Ă":{"ha":764,"x_min":-133,"x_max":801,"o":"m 718 1049 l 504 1014 l 404 1158 l 483 1208 l 551 1128 l 653 1143 l 725 1239 l 801 1190 l 718 1049 m 415 21 l 443 263 l 129 183 l 4 -28 l -133 69 l 414 972 l 686 865 l 601 -24 l 415 21 m 214 328 l 458 382 l 503 819 l 214 328 z "},"ă":{"ha":742,"x_min":-72,"x_max":693,"o":"m 600 751 l 386 717 l 286 861 l 365 911 l 433 831 l 535 846 l 607 942 l 683 893 l 600 751 m 492 -28 l 324 43 l 414 338 l 163 -28 l -72 56 q -14 330 -72 190 q 142 567 44 469 q 343 675 239 665 l 492 543 l 543 661 l 693 607 l 492 -28 m 433 475 l 382 521 q 217 362 293 471 q 107 121 140 253 l 146 101 l 433 475 z "},"Ą":{"ha":778,"x_min":-119,"x_max":700,"o":"m 367 -222 l 318 -19 l 429 11 l 457 263 l 143 183 l 18 -28 l -119 69 l 426 972 l 700 865 l 614 -24 l 543 -35 l 393 -71 l 401 -97 l 588 -92 l 590 -201 l 367 -222 m 228 328 l 471 382 l 515 819 l 228 328 z "},"ą":{"ha":786,"x_min":-61,"x_max":706,"o":"m 508 -203 l 303 -222 l 253 -24 l 393 19 l 335 43 l 425 338 l 174 -28 l -61 56 q -2 330 -60 190 q 153 567 56 469 q 356 675 251 665 l 504 543 l 556 661 l 706 607 l 503 -28 l 465 -43 l 331 -74 l 338 -97 l 504 -92 l 508 -203 m 446 475 l 394 521 q 228 363 304 471 q 118 121 153 254 l 157 101 l 446 475 z "},"Ć":{"ha":753,"x_min":-22,"x_max":803,"o":"m 740 1107 l 424 1028 l 392 1129 l 697 1236 l 740 1107 m 638 143 l 215 -29 l -22 69 q 47 480 -18 290 q 247 805 113 669 q 564 972 382 940 q 803 832 721 910 l 672 449 l 517 490 l 618 836 q 168 126 229 718 l 592 292 l 638 143 z "},"ć":{"ha":596,"x_min":-35,"x_max":592,"o":"m 592 810 l 275 731 l 243 832 l 549 939 l 592 810 m 464 83 l 119 -29 l -35 61 q 58 469 -47 296 q 328 675 163 643 l 553 585 l 467 296 l 340 317 l 386 554 l 385 553 q 225 372 290 488 q 147 122 160 256 l 438 199 l 464 83 z "},"Ĉ":{"ha":753,"x_min":-22,"x_max":803,"o":"m 750 1017 l 615 1092 l 394 1025 l 358 1117 l 635 1224 l 794 1108 l 750 1017 m 638 143 l 215 -29 l -22 69 q 47 480 -18 290 q 247 805 113 669 q 564 972 382 940 q 803 832 721 910 l 672 449 l 517 490 l 618 836 q 168 126 229 718 l 592 292 l 638 143 z "},"ĉ":{"ha":596,"x_min":-35,"x_max":646,"o":"m 601 719 l 467 794 l 246 728 l 210 819 l 486 926 l 646 811 l 601 719 m 464 83 l 119 -29 l -35 61 q 58 469 -47 296 q 328 675 163 643 l 553 585 l 467 296 l 340 317 l 386 554 l 385 553 q 225 372 290 488 q 147 122 160 256 l 438 199 l 464 83 z "},"Ċ":{"ha":753,"x_min":-22,"x_max":803,"o":"m 686 1221 l 646 1022 l 501 1050 q 532 1250 494 1154 l 686 1221 m 638 143 l 215 -29 l -22 69 q 47 480 -18 290 q 247 805 113 669 q 564 972 382 940 q 803 832 721 910 l 672 449 l 517 490 l 618 836 q 168 126 229 718 l 592 292 l 638 143 z "},"ċ":{"ha":596,"x_min":-35,"x_max":553,"o":"m 538 924 l 497 725 l 353 753 q 383 953 346 857 l 538 924 m 464 83 l 119 -29 l -35 61 q 58 469 -47 296 q 328 675 163 643 l 553 585 l 467 296 l 340 317 l 386 554 l 385 553 q 225 372 290 488 q 147 122 160 256 l 438 199 l 464 83 z "},"Č":{"ha":753,"x_min":-22,"x_max":808,"o":"m 568 1007 l 372 1122 l 407 1213 l 583 1138 l 763 1206 l 808 1114 l 568 1007 m 638 143 l 215 -29 l -22 69 q 47 480 -18 290 q 247 805 113 669 q 564 972 382 940 q 803 832 721 910 l 672 449 l 517 490 l 618 836 q 168 126 229 718 l 592 292 l 638 143 z "},"č":{"ha":596,"x_min":-35,"x_max":660,"o":"m 419 710 l 224 825 l 258 915 l 435 840 l 614 908 l 660 817 l 419 710 m 464 83 l 119 -29 l -35 61 q 58 469 -47 296 q 328 675 163 643 l 553 585 l 467 296 l 340 317 l 386 554 l 385 553 q 225 372 290 488 q 147 122 160 256 l 438 199 l 464 83 z "},"Ď":{"ha":786,"x_min":-47,"x_max":825,"o":"m 561 1007 l 365 1122 l 400 1213 l 576 1138 l 756 1206 l 801 1114 l 561 1007 m 154 -29 l -47 131 l 204 775 l 179 872 q 718 972 385 958 l 825 757 q 594 256 751 444 q 154 -29 436 67 m 156 144 q 486 401 361 233 q 668 821 611 568 l 382 757 l 156 144 z "},"ď":{"ha":775,"x_min":-39,"x_max":1053,"o":"m 506 -28 l 349 49 l 474 367 l 203 -28 l -39 56 q 19 331 -39 190 q 175 568 78 471 q 376 675 272 665 l 539 535 l 711 972 l 858 854 l 506 -28 m 1053 911 l 960 704 l 851 704 l 931 951 l 1053 911 m 474 475 l 415 521 q 250 362 326 471 q 140 121 174 253 l 186 101 l 474 475 z "},"Đ":{"ha":811,"x_min":-19,"x_max":851,"o":"m 181 -29 l -19 131 l 72 368 l 7 354 l -18 472 l 124 501 l 231 775 l 206 872 q 744 972 411 958 l 851 757 q 620 256 778 444 q 181 -29 463 67 m 481 456 l 281 410 l 182 144 q 513 401 388 233 q 694 821 638 568 l 408 757 l 328 542 l 458 572 l 481 456 z "},"đ":{"ha":756,"x_min":-60,"x_max":893,"o":"m 485 -28 l 328 49 l 453 367 l 182 -28 l -60 56 q -1 331 -60 190 q 154 568 57 471 q 356 675 251 665 l 518 535 l 590 717 l 439 717 l 465 822 l 632 822 l 690 972 l 788 892 l 792 822 l 893 822 l 868 717 l 782 717 l 485 -28 m 453 475 l 394 521 q 229 362 306 471 q 119 121 153 253 l 165 101 l 453 475 z "},"Ē":{"ha":663,"x_min":-47,"x_max":719,"o":"m 335 1060 l 361 1174 l 690 1174 l 665 1060 l 335 1060 m 143 -28 l -47 131 l 204 775 l 179 872 q 693 969 407 965 l 719 832 l 381 757 l 285 496 q 554 550 388 531 l 576 439 l 226 340 l 151 139 l 531 231 l 561 83 l 143 -28 z "},"ē":{"ha":596,"x_min":-49,"x_max":607,"o":"m 251 763 l 278 876 l 607 876 l 582 763 l 251 763 m 450 83 l 106 -29 l -49 61 q 44 469 -61 296 q 314 675 149 643 l 539 585 l 450 292 l 153 233 q 133 122 135 176 l 424 199 l 450 83 m 182 313 l 329 347 l 374 554 l 372 554 q 182 313 247 469 z "},"Ĕ":{"ha":664,"x_min":-46,"x_max":721,"o":"m 621 1049 l 407 1014 l 307 1158 l 386 1208 l 454 1128 l 556 1143 l 628 1239 l 704 1190 l 621 1049 m 144 -28 l -46 131 l 206 775 l 181 872 q 694 969 408 965 l 721 832 l 382 757 l 286 496 q 556 550 389 531 l 578 439 l 228 340 l 153 139 l 532 231 l 563 83 l 144 -28 z "},"ĕ":{"ha":596,"x_min":-49,"x_max":617,"o":"m 533 751 l 319 717 l 219 861 l 299 911 l 367 831 l 468 846 l 540 942 l 617 893 l 533 751 m 450 83 l 106 -29 l -49 61 q 44 469 -61 296 q 314 675 149 643 l 539 585 l 450 292 l 153 233 q 133 122 135 176 l 424 199 l 450 83 m 182 313 l 329 347 l 374 554 l 372 554 q 182 313 247 469 z "},"Ė":{"ha":663,"x_min":-47,"x_max":719,"o":"m 607 1221 l 567 1022 l 422 1050 q 453 1250 415 1154 l 607 1221 m 143 -28 l -47 131 l 204 775 l 179 872 q 693 969 407 965 l 719 832 l 381 757 l 285 496 q 554 550 388 531 l 576 439 l 226 340 l 151 139 l 531 231 l 561 83 l 143 -28 z "},"ė":{"ha":596,"x_min":-49,"x_max":539,"o":"m 524 924 l 483 725 l 339 753 q 369 953 332 857 l 524 924 m 450 83 l 106 -29 l -49 61 q 44 469 -61 296 q 314 675 149 643 l 539 585 l 450 292 l 153 233 q 133 122 135 176 l 424 199 l 450 83 m 182 313 l 329 347 l 374 554 l 372 554 q 182 313 247 469 z "},"Ę":{"ha":663,"x_min":-47,"x_max":721,"o":"m 39 -222 l -11 -24 l 97 8 l -47 131 l 204 775 l 179 872 q 693 969 407 965 l 721 832 l 382 757 l 285 496 q 554 550 390 532 l 576 439 l 228 340 l 153 139 l 531 231 l 563 83 l 218 -7 l 67 -74 l 74 -97 l 258 -92 l 263 -201 l 39 -222 z "},"ę":{"ha":597,"x_min":-35,"x_max":553,"o":"m 294 -201 l 71 -222 l 22 -24 l 78 -3 l -35 61 q 58 469 -47 296 q 328 675 163 643 l 553 585 l 464 292 l 167 233 q 147 104 147 168 l 440 193 l 464 83 l 399 60 l 99 -72 l 106 -97 l 292 -92 l 294 -201 m 196 313 l 343 347 l 388 554 l 386 554 q 196 313 261 469 z "},"Ě":{"ha":663,"x_min":-47,"x_max":729,"o":"m 489 1007 l 293 1122 l 328 1213 l 504 1138 l 683 1206 l 729 1114 l 489 1007 m 143 -28 l -47 131 l 204 775 l 179 872 q 693 969 407 965 l 719 832 l 381 757 l 285 496 q 554 550 388 531 l 576 439 l 226 340 l 151 139 l 531 231 l 561 83 l 143 -28 z "},"ě":{"ha":596,"x_min":-49,"x_max":646,"o":"m 406 710 l 210 825 l 244 915 l 421 840 l 600 908 l 646 817 l 406 710 m 450 83 l 106 -29 l -49 61 q 44 469 -61 296 q 314 675 149 643 l 539 585 l 450 292 l 153 233 q 133 122 135 176 l 424 199 l 450 83 m 182 313 l 329 347 l 374 554 l 372 554 q 182 313 247 469 z "},"Ĝ":{"ha":767,"x_min":-22,"x_max":803,"o":"m 751 1017 l 617 1092 l 396 1025 l 360 1117 l 636 1224 l 796 1108 l 751 1017 m 622 129 l 215 -29 l -22 69 q 47 480 -18 290 q 247 805 113 669 q 564 972 382 940 q 803 832 718 913 l 682 478 l 525 519 l 618 836 q 168 122 226 717 l 550 265 l 336 319 l 374 446 l 694 356 l 622 129 z "},"ĝ":{"ha":728,"x_min":-72,"x_max":689,"o":"m 644 719 l 510 794 l 289 728 l 253 819 l 529 926 l 689 811 l 644 719 m 410 -192 l 242 -269 l 61 -186 l 101 -72 l 250 -115 l 428 361 l 163 -28 l -72 58 q -14 332 -72 193 q 142 568 44 471 q 343 676 239 665 l 493 543 l 539 661 l 685 606 l 410 -192 m 146 101 l 433 475 l 382 521 q 217 362 293 471 q 107 121 140 253 l 146 101 z "},"Ğ":{"ha":767,"x_min":-22,"x_max":803,"o":"m 697 1049 l 483 1014 l 383 1158 l 463 1208 l 531 1128 l 632 1143 l 704 1239 l 781 1190 l 697 1049 m 622 129 l 215 -29 l -22 69 q 47 480 -18 290 q 247 805 113 669 q 564 972 382 940 q 803 832 718 913 l 682 478 l 525 519 l 618 836 q 168 122 226 717 l 550 265 l 336 319 l 374 446 l 694 356 l 622 129 z "},"ğ":{"ha":728,"x_min":-72,"x_max":685,"o":"m 590 751 l 376 717 l 276 861 l 356 911 l 424 831 l 525 846 l 597 942 l 674 893 l 590 751 m 410 -192 l 242 -269 l 61 -186 l 101 -72 l 250 -115 l 428 361 l 163 -28 l -72 58 q -14 332 -72 193 q 142 568 44 471 q 343 676 239 665 l 493 543 l 539 661 l 685 606 l 410 -192 m 146 101 l 433 475 l 382 521 q 217 362 293 471 q 107 121 140 253 l 146 101 z "},"Ġ":{"ha":767,"x_min":-22,"x_max":803,"o":"m 688 1221 l 647 1022 l 503 1050 q 533 1250 496 1154 l 688 1221 m 622 129 l 215 -29 l -22 69 q 47 480 -18 290 q 247 805 113 669 q 564 972 382 940 q 803 832 718 913 l 682 478 l 525 519 l 618 836 q 168 122 226 717 l 550 265 l 336 319 l 374 446 l 694 356 l 622 129 z "},"ġ":{"ha":728,"x_min":-72,"x_max":685,"o":"m 557 908 l 517 710 l 372 738 q 403 938 365 842 l 557 908 m 410 -192 l 242 -269 l 61 -186 l 101 -72 l 250 -115 l 428 361 l 163 -28 l -72 58 q -14 332 -72 193 q 142 568 44 471 q 343 676 239 665 l 493 543 l 539 661 l 685 606 l 410 -192 m 146 101 l 433 475 l 382 521 q 217 362 293 471 q 107 121 140 253 l 146 101 z "},"Ģ":{"ha":767,"x_min":-22,"x_max":803,"o":"m 622 129 l 215 -29 l -22 69 q 47 480 -18 290 q 247 805 113 669 q 564 972 382 940 q 803 832 718 913 l 682 478 l 525 519 l 618 836 q 168 122 226 717 l 550 265 l 336 319 l 374 446 l 694 356 l 622 129 m 72 -389 l 26 -332 l 144 -219 l 76 -158 l 124 -46 l 307 -114 l 250 -272 l 72 -389 z "},"ģ":{"ha":728,"x_min":-72,"x_max":685,"o":"m 569 1065 l 615 1008 l 497 896 l 565 835 l 518 722 l 335 790 l 392 949 l 569 1065 m 410 -192 l 242 -269 l 61 -186 l 101 -72 l 250 -115 l 428 361 l 163 -28 l -72 58 q -14 332 -72 193 q 142 568 44 471 q 343 676 239 665 l 493 543 l 539 661 l 685 606 l 410 -192 m 146 101 l 433 475 l 382 521 q 217 362 293 471 q 107 121 140 253 l 146 101 z "},"Ĥ":{"ha":832,"x_min":-75,"x_max":901,"o":"m 779 1017 l 644 1092 l 424 1025 l 388 1117 l 664 1224 l 824 1108 l 779 1017 m 560 -28 l 379 49 l 499 356 l 219 286 l 106 -28 l -75 49 l 286 972 l 447 913 l 272 433 l 554 496 l 740 972 l 901 913 l 560 -28 z "},"ĥ":{"ha":722,"x_min":-81,"x_max":803,"o":"m 758 1010 l 624 1085 l 403 1018 l 367 1110 l 643 1217 l 803 1101 l 758 1010 m 496 -28 l 313 49 q 476 454 342 228 l 440 485 l 142 133 l 78 -28 l -81 49 l 283 972 l 451 910 l 228 349 q 533 675 392 571 l 681 558 l 496 -28 z "},"Ħ":{"ha":838,"x_min":-72,"x_max":911,"o":"m 888 663 l 813 663 l 563 -28 l 382 49 l 501 356 l 221 286 l 108 -28 l -72 49 l 168 663 l 79 663 l 104 769 l 210 769 l 289 972 l 449 913 l 396 769 l 664 769 l 743 972 l 903 913 l 850 769 l 911 769 l 888 663 m 274 433 l 556 496 l 622 663 l 358 663 l 274 433 z "},"ħ":{"ha":692,"x_min":-87,"x_max":674,"o":"m 674 558 l 489 -28 l 306 49 q 469 454 335 228 l 433 485 l 135 133 l 71 -28 l -87 49 l 176 717 l 96 717 l 115 822 l 218 822 l 276 972 l 446 910 l 410 822 l 568 822 l 550 717 l 368 717 l 221 349 q 528 675 386 572 l 674 558 z "},"Ĩ":{"ha":378,"x_min":-75,"x_max":608,"o":"m 463 1022 l 336 1089 l 242 1029 l 190 1113 l 335 1219 l 444 1151 l 557 1219 l 608 1143 l 463 1022 m 447 913 l 106 -28 l -75 49 l 286 972 l 447 913 z "},"ĩ":{"ha":356,"x_min":-85,"x_max":507,"o":"m 361 725 l 235 792 l 140 732 l 89 815 l 233 922 l 343 854 l 456 922 l 507 846 l 361 725 m 90 -28 l -85 49 l 171 674 l 336 610 l 90 -28 z "},"Ī":{"ha":378,"x_min":-75,"x_max":585,"o":"m 229 1060 l 256 1174 l 585 1174 l 560 1060 l 229 1060 m 447 913 l 106 -28 l -75 49 l 286 972 l 447 913 z "},"ī":{"ha":356,"x_min":-85,"x_max":483,"o":"m 128 763 l 154 876 l 483 876 l 458 763 l 128 763 m 90 -28 l -85 49 l 171 674 l 336 610 l 90 -28 z "},"Ĭ":{"ha":378,"x_min":-75,"x_max":594,"o":"m 511 1049 l 297 1014 l 197 1158 l 276 1208 l 344 1128 l 446 1143 l 518 1239 l 594 1190 l 511 1049 m 447 913 l 106 -28 l -75 49 l 286 972 l 447 913 z "},"ĭ":{"ha":356,"x_min":-85,"x_max":493,"o":"m 410 751 l 196 717 l 96 861 l 175 911 l 243 831 l 344 846 l 417 942 l 493 893 l 410 751 m 90 -28 l -85 49 l 171 674 l 336 610 l 90 -28 z "},"Į":{"ha":379,"x_min":-142,"x_max":449,"o":"m 113 -203 l -93 -222 l -142 -24 l -1 18 l -74 49 l 288 972 l 449 913 l 107 -28 l -65 -74 l -58 -97 l 108 -92 l 113 -203 z "},"į":{"ha":349,"x_min":-158,"x_max":394,"o":"m 394 924 l 354 725 l 210 753 q 240 953 203 861 l 394 924 m 96 -203 l -110 -222 l -158 -24 l -15 19 l -83 49 l 172 674 l 338 610 l 92 -28 l 90 -28 l -82 -74 l -75 -97 l 92 -92 l 96 -203 z "},"İ":{"ha":378,"x_min":-75,"x_max":501,"o":"m 501 1221 l 461 1022 l 317 1050 q 347 1250 310 1154 l 501 1221 m 447 913 l 106 -28 l -75 49 l 286 972 l 447 913 z "},"ı":{"ha":356,"x_min":-86,"x_max":335,"o":"m 89 -28 l -86 49 l 169 674 l 335 610 l 89 -28 z "},"Ĳ":{"ha":933,"x_min":-75,"x_max":1006,"o":"m 447 913 l 106 -28 l -75 49 l 286 972 l 447 913 m 496 -28 l 307 249 l 426 344 l 536 168 l 844 972 l 1006 913 l 694 53 l 496 -28 z "},"ĳ":{"ha":685,"x_min":-87,"x_max":728,"o":"m 390 924 l 350 725 l 206 753 q 236 953 199 857 l 390 924 m 728 924 l 689 725 l 543 753 q 575 953 536 858 l 728 924 m 88 -28 l -87 49 l 168 674 l 333 610 l 88 -28 m 154 -186 l 129 -104 l 219 -57 l 508 674 l 664 610 l 421 -22 q 303 -159 386 -112 q 154 -186 219 -206 z "},"Ĵ":{"ha":563,"x_min":-65,"x_max":775,"o":"m 731 1017 l 596 1092 l 375 1025 l 339 1117 l 615 1224 l 775 1108 l 731 1017 m 124 -28 l -65 249 l 54 344 l 164 168 l 472 972 l 633 913 l 322 53 l 124 -28 z "},"ĵ":{"ha":347,"x_min":-210,"x_max":504,"o":"m 460 719 l 325 794 l 104 728 l 68 819 l 344 926 l 504 811 l 460 719 m -185 -186 l -210 -104 l -124 -58 l 171 674 l 325 610 l 82 -22 q -36 -159 47 -112 q -185 -186 -119 -206 z "},"Ķ":{"ha":757,"x_min":-75,"x_max":851,"o":"m 504 -28 l 231 317 l 106 -28 l -75 49 l 286 972 l 447 913 l 254 383 l 725 969 l 851 863 l 433 342 l 631 97 l 504 -28 m 100 -389 l 54 -332 l 172 -219 l 104 -158 l 151 -46 l 335 -114 l 278 -272 l 100 -389 z "},"ķ":{"ha":728,"x_min":-81,"x_max":681,"o":"m 499 -29 l 235 144 l 290 258 q 409 324 354 268 q 488 458 464 379 l 438 490 l 136 121 l 78 -28 l -81 49 l 283 972 l 451 910 l 221 332 q 526 675 381 565 l 681 572 q 613 356 672 463 q 456 194 554 249 l 578 110 l 499 -29 m 99 -389 l 53 -332 l 171 -219 l 103 -158 l 150 -46 l 333 -114 l 276 -272 l 99 -389 z "},"Ĺ":{"ha":675,"x_min":-50,"x_max":635,"o":"m 635 1107 l 318 1028 l 286 1129 l 592 1236 l 635 1107 m 139 -28 l -50 131 l 279 972 l 439 913 l 154 140 l 501 225 l 533 76 l 139 -28 z "},"ĺ":{"ha":342,"x_min":-81,"x_max":593,"o":"m 593 1088 l 276 1008 l 244 1110 l 550 1217 l 593 1088 m -81 49 l 283 972 l 451 910 l 78 -28 l -81 49 z "},"Ļ":{"ha":675,"x_min":-62,"x_max":533,"o":"m 139 -28 l -50 131 l 279 972 l 439 913 l 154 140 l 501 225 l 533 76 l 139 -28 m -17 -389 l -62 -332 l 56 -219 l -12 -158 l 35 -46 l 218 -114 l 161 -272 l -17 -389 z "},"ļ":{"ha":349,"x_min":-201,"x_max":451,"o":"m -81 49 l 283 972 l 451 910 l 78 -28 l -81 49 m -156 -389 l -201 -332 l -83 -219 l -151 -158 l -104 -46 l 79 -114 l 22 -272 l -156 -389 z "},"Ľ":{"ha":635,"x_min":-50,"x_max":663,"o":"m 139 -28 l -50 131 l 279 972 l 439 913 l 154 140 l 501 225 l 533 76 l 139 -28 m 663 911 l 569 704 l 461 704 l 540 951 l 663 911 z "},"ľ":{"ha":342,"x_min":-81,"x_max":625,"o":"m -81 49 l 283 972 l 451 910 l 78 -28 l -81 49 m 625 911 l 532 704 l 424 704 l 503 951 l 625 911 z "},"Ŀ":{"ha":672,"x_min":-47,"x_max":606,"o":"m 142 -28 l -47 131 l 282 972 l 442 913 l 157 140 l 504 225 l 536 76 l 142 -28 m 606 482 l 543 306 l 360 374 l 422 551 l 606 482 z "},"ŀ":{"ha":489,"x_min":-81,"x_max":515,"o":"m -81 49 l 283 972 l 451 910 l 78 -28 l -81 49 m 515 482 l 453 306 l 269 374 l 332 551 l 515 482 z "},"Ł":{"ha":708,"x_min":-19,"x_max":565,"o":"m 171 -28 l -19 131 l 78 378 l 13 363 l -12 481 l 129 511 l 310 972 l 471 913 l 338 554 l 501 593 l 526 476 l 289 421 l 185 140 l 533 225 l 565 76 l 171 -28 z "},"ł":{"ha":408,"x_min":-60,"x_max":472,"o":"m 97 -28 l -60 49 l 74 386 l 10 374 l -12 493 l 125 517 l 304 972 l 472 910 l 329 551 l 403 564 l 424 447 l 276 421 l 97 -28 z "},"Ń":{"ha":846,"x_min":-75,"x_max":917,"o":"m 794 1107 l 478 1028 l 446 1129 l 751 1236 l 794 1107 m 575 -28 l 351 63 l 353 703 l 90 -28 l -75 49 l 286 972 l 489 889 l 481 213 l 771 972 l 917 913 l 575 -28 z "},"ń":{"ha":738,"x_min":-85,"x_max":683,"o":"m 647 810 l 331 731 l 299 832 l 604 939 l 647 810 m 499 -28 l 317 49 q 479 454 346 231 l 443 485 l 158 149 l 92 -28 l -85 49 l 167 660 l 328 596 l 236 354 q 538 675 408 582 l 683 558 l 499 -28 z "},"Ņ":{"ha":846,"x_min":-75,"x_max":917,"o":"m 575 -28 l 351 63 l 353 703 l 90 -28 l -75 49 l 286 972 l 489 889 l 481 213 l 771 972 l 917 913 l 575 -28 m 128 -389 l 82 -332 l 200 -219 l 132 -158 l 179 -46 l 363 -114 l 306 -272 l 128 -389 z "},"ņ":{"ha":738,"x_min":-85,"x_max":683,"o":"m 499 -28 l 317 49 q 479 454 346 231 l 443 485 l 158 149 l 92 -28 l -85 49 l 167 660 l 328 596 l 236 354 q 538 675 408 582 l 683 558 l 499 -28 m 108 -389 l 63 -332 l 181 -219 l 113 -158 l 160 -46 l 343 -114 l 286 -272 l 108 -389 z "},"Ň":{"ha":846,"x_min":-75,"x_max":917,"o":"m 622 1007 l 426 1122 l 461 1213 l 638 1138 l 817 1206 l 863 1114 l 622 1007 m 575 -28 l 351 63 l 353 703 l 90 -28 l -75 49 l 286 972 l 489 889 l 481 213 l 771 972 l 917 913 l 575 -28 z "},"ň":{"ha":738,"x_min":-85,"x_max":715,"o":"m 475 710 l 279 825 l 314 915 l 490 840 l 669 908 l 715 817 l 475 710 m 499 -28 l 317 49 q 479 454 346 231 l 443 485 l 158 149 l 92 -28 l -85 49 l 167 660 l 328 596 l 236 354 q 538 675 408 582 l 683 558 l 499 -28 z "},"Ō":{"ha":813,"x_min":-19,"x_max":875,"o":"m 519 1060 l 546 1174 l 875 1174 l 850 1060 l 519 1060 m 224 -31 l -19 69 q 22 386 -17 235 q 133 663 61 538 q 323 870 206 788 q 589 972 440 953 l 833 872 q 792 556 831 706 q 680 280 753 406 q 490 72 607 154 q 224 -31 372 -11 m 165 111 q 379 200 289 135 q 524 365 469 265 q 607 578 578 465 q 647 832 636 692 q 165 111 215 747 z "},"ō":{"ha":656,"x_min":-47,"x_max":636,"o":"m 281 763 l 307 876 l 636 876 l 611 763 l 281 763 m -47 65 q 41 472 -60 299 q 299 675 142 646 l 574 564 q 478 167 579 333 q 222 -28 376 1 l -47 65 m 196 93 q 326 278 274 167 q 396 511 379 390 l 318 546 q 185 352 239 468 q 121 122 132 236 l 196 93 z "},"Ŏ":{"ha":813,"x_min":-19,"x_max":885,"o":"m 801 1049 l 588 1014 l 488 1158 l 567 1208 l 635 1128 l 736 1143 l 808 1239 l 885 1190 l 801 1049 m 224 -31 l -19 69 q 22 386 -17 235 q 133 663 61 538 q 323 870 206 788 q 589 972 440 953 l 833 872 q 792 556 831 706 q 680 280 753 406 q 490 72 607 154 q 224 -31 372 -11 m 165 111 q 379 200 289 135 q 524 365 469 265 q 607 578 578 465 q 647 832 636 692 q 165 111 215 747 z "},"ŏ":{"ha":656,"x_min":-47,"x_max":646,"o":"m 563 751 l 349 717 l 249 861 l 328 911 l 396 831 l 497 846 l 569 942 l 646 893 l 563 751 m -47 65 q 41 472 -60 299 q 299 675 142 646 l 574 564 q 478 167 579 333 q 222 -28 376 1 l -47 65 m 196 93 q 326 278 274 167 q 396 511 379 390 l 318 546 q 185 352 239 468 q 121 122 132 236 l 196 93 z "},"Ő":{"ha":813,"x_min":-19,"x_max":926,"o":"m 715 1151 l 531 992 l 472 1067 l 642 1242 l 715 1151 m 926 1151 l 740 992 l 683 1067 l 851 1242 l 926 1151 m 224 -31 l -19 69 q 22 386 -17 235 q 133 663 61 538 q 323 870 206 788 q 589 972 440 953 l 833 872 q 792 556 831 706 q 680 280 753 406 q 490 72 607 154 q 224 -31 372 -11 m 165 111 q 379 200 289 135 q 524 365 469 265 q 607 578 578 465 q 647 832 636 692 q 165 111 215 747 z "},"ő":{"ha":656,"x_min":-47,"x_max":688,"o":"m 476 854 l 292 694 l 233 769 l 403 944 l 476 854 m 688 854 l 501 694 l 444 769 l 613 944 l 688 854 m -47 65 q 41 472 -60 299 q 299 675 142 646 l 574 564 q 478 167 579 333 q 222 -28 376 1 l -47 65 m 196 93 q 326 278 274 167 q 396 511 379 390 l 318 546 q 185 352 239 468 q 121 122 132 236 l 196 93 z "},"Œ":{"ha":1018,"x_min":-33,"x_max":1078,"o":"m 553 -28 l 436 71 q 210 -31 329 -15 l -33 69 q 25 439 -35 281 q 214 713 85 597 q 551 892 343 828 q 1051 971 760 957 l 1078 833 l 849 796 q 826 791 842 794 q 801 786 810 788 l 692 489 q 900 538 788 524 l 922 435 l 636 338 l 563 142 l 913 247 l 949 110 l 553 -28 m 151 111 q 404 260 286 139 q 439 324 421 288 l 601 743 q 348 605 446 696 q 206 395 250 514 q 151 111 161 276 z "},"œ":{"ha":961,"x_min":-32,"x_max":919,"o":"m 486 -29 l 472 -19 l 471 -18 l 394 25 q 388 38 393 28 q 381 56 383 49 q 222 -28 307 -11 l -32 65 q 56 472 -44 299 q 314 675 157 646 l 521 575 q 696 675 597 653 l 919 585 l 831 292 l 532 231 q 514 122 515 175 l 804 199 l 831 83 l 486 -29 m 561 311 l 710 347 l 754 554 l 753 554 q 561 311 629 469 m 213 93 q 360 315 306 179 q 383 382 382 378 q 413 511 404 444 l 335 546 q 202 352 256 468 q 138 122 149 236 l 213 93 z "},"Ŕ":{"ha":782,"x_min":-74,"x_max":825,"o":"m 768 1107 l 451 1028 l 419 1129 l 725 1236 l 768 1107 m 499 -28 l 218 285 l 104 -28 l -74 49 l 211 775 l 186 872 q 718 972 392 958 l 825 757 q 683 503 788 618 q 422 322 579 388 l 632 103 l 499 -28 m 267 418 q 529 564 426 463 q 669 821 632 665 l 393 758 l 267 418 z "},"ŕ":{"ha":642,"x_min":-112,"x_max":638,"o":"m 638 810 l 321 731 l 289 832 l 594 939 l 638 810 m 399 -28 l 211 38 q 369 460 247 246 l 242 460 l 18 -28 l -112 24 l 118 463 l 60 547 l 158 735 l 283 707 l 264 533 q 457 675 361 631 l 581 558 q 399 -28 464 279 z "},"Ŗ":{"ha":782,"x_min":-74,"x_max":825,"o":"m 499 -28 l 218 285 l 104 -28 l -74 49 l 211 775 l 186 872 q 718 972 392 958 l 825 757 q 683 503 788 618 q 422 322 579 388 l 632 103 l 499 -28 m 267 418 q 529 564 426 463 q 669 821 632 665 l 393 758 l 267 418 m 114 -389 l 68 -332 l 186 -219 l 118 -158 l 165 -46 l 349 -114 l 292 -272 l 114 -389 z "},"ŗ":{"ha":642,"x_min":-112,"x_max":581,"o":"m 399 -28 l 211 38 q 369 460 247 246 l 242 460 l 18 -28 l -112 24 l 118 463 l 60 547 l 158 735 l 283 707 l 264 533 q 457 675 361 631 l 581 558 q 399 -28 464 279 m 44 -389 l -1 -332 l 117 -219 l 49 -158 l 96 -46 l 279 -114 l 222 -272 l 44 -389 z "},"Ř":{"ha":782,"x_min":-74,"x_max":836,"o":"m 596 1007 l 400 1122 l 435 1213 l 611 1138 l 790 1206 l 836 1114 l 596 1007 m 499 -28 l 218 285 l 104 -28 l -74 49 l 211 775 l 186 872 q 718 972 392 958 l 825 757 q 683 503 788 618 q 422 322 579 388 l 632 103 l 499 -28 m 267 418 q 529 564 426 463 q 669 821 632 665 l 393 758 l 267 418 z "},"ř":{"ha":642,"x_min":-112,"x_max":668,"o":"m 428 710 l 232 825 l 267 915 l 443 840 l 622 908 l 668 817 l 428 710 m 399 -28 l 211 38 q 369 460 247 246 l 242 460 l 18 -28 l -112 24 l 118 463 l 60 547 l 158 735 l 283 707 l 264 533 q 457 675 361 631 l 581 558 q 399 -28 464 279 z "},"Ś":{"ha":721,"x_min":-72,"x_max":769,"o":"m 767 1107 l 450 1028 l 418 1129 l 724 1236 l 767 1107 m 482 -29 q -72 61 215 -33 l -24 238 q 429 133 211 168 q 46 453 176 275 l 47 454 q 56 486 49 469 q 242 808 118 672 q 533 972 367 944 q 769 832 686 913 l 639 447 l 489 490 l 593 835 q 244 458 358 764 l 558 193 l 482 -29 z "},"ś":{"ha":588,"x_min":-83,"x_max":572,"o":"m 572 810 l 256 731 l 224 832 l 529 939 l 572 810 m 146 -29 q -83 6 42 -29 l -65 138 l 268 138 l 268 188 q -15 272 100 204 q 115 541 15 424 q 331 675 214 658 l 556 585 l 476 332 l 346 349 l 371 547 q 193 310 253 467 l 394 240 l 404 57 q 146 -29 321 -29 z "},"Ŝ":{"ha":721,"x_min":-72,"x_max":821,"o":"m 776 1017 l 642 1092 l 421 1025 l 385 1117 l 661 1224 l 821 1108 l 776 1017 m 482 -29 q -72 61 215 -33 l -24 238 q 429 133 211 168 q 46 453 176 275 l 47 454 q 56 486 49 469 q 242 808 118 672 q 533 972 367 944 q 769 832 686 913 l 639 447 l 489 490 l 593 835 q 244 458 358 764 l 558 193 l 482 -29 z "},"ŝ":{"ha":588,"x_min":-83,"x_max":626,"o":"m 582 719 l 447 794 l 226 728 l 190 819 l 467 926 l 626 811 l 582 719 m 146 -29 q -83 6 42 -29 l -65 138 l 268 138 l 268 188 q -15 272 100 204 q 115 541 15 424 q 331 675 214 658 l 556 585 l 476 332 l 346 349 l 371 547 q 193 310 253 467 l 394 240 l 404 57 q 146 -29 321 -29 z "},"Ş":{"ha":721,"x_min":-72,"x_max":771,"o":"m 238 -222 l -15 -165 l 8 -49 l 214 -90 l 224 -64 l 68 8 l -24 46 q -49 53 -32 49 q -72 61 -65 58 l -24 238 q 429 133 214 167 q 47 453 178 274 l 47 454 l 56 483 q 242 808 118 671 q 535 972 367 944 q 771 832 688 913 l 640 447 l 490 490 l 594 835 q 246 458 357 763 l 560 193 l 483 -29 q 269 -14 382 -31 l 301 -51 l 238 -222 z "},"ş":{"ha":582,"x_min":-69,"x_max":569,"o":"m 201 -222 l -22 -165 l 1 -49 l 175 -89 l 185 -64 l 67 -19 q -69 6 11 -15 l -51 138 l 281 138 l 281 188 q -1 272 114 204 q 128 540 28 422 q 344 675 228 658 l 569 585 l 490 332 l 360 349 l 385 547 q 206 310 265 467 l 408 240 l 418 57 q 240 -22 356 -10 l 264 -32 l 201 -222 z "},"Š":{"ha":721,"x_min":-72,"x_max":835,"o":"m 594 1007 l 399 1122 l 433 1213 l 610 1138 l 789 1206 l 835 1114 l 594 1007 m 482 -29 q -72 61 215 -33 l -24 238 q 429 133 211 168 q 46 453 176 275 l 47 454 q 56 486 49 469 q 242 808 118 672 q 533 972 367 944 q 769 832 686 913 l 639 447 l 489 490 l 593 835 q 244 458 358 764 l 558 193 l 482 -29 z "},"š":{"ha":588,"x_min":-83,"x_max":640,"o":"m 400 710 l 204 825 l 239 915 l 415 840 l 594 908 l 640 817 l 400 710 m 146 -29 q -83 6 42 -29 l -65 138 l 268 138 l 268 188 q -15 272 100 204 q 115 541 15 424 q 331 675 214 658 l 556 585 l 476 332 l 346 349 l 371 547 q 193 310 253 467 l 394 240 l 404 57 q 146 -29 321 -29 z "},"Ţ":{"ha":567,"x_min":-132,"x_max":719,"o":"m 676 746 l 482 764 l 196 -26 l 7 47 l 293 779 l 78 799 l 133 972 l 719 894 l 676 746 m -86 -389 l -132 -332 l -14 -219 l -82 -158 l -35 -46 l 149 -114 l 92 -272 l -86 -389 z "},"ţ":{"ha":500,"x_min":-83,"x_max":510,"o":"m 369 61 l 92 -29 l -61 61 l 122 529 l 44 529 l 67 633 l 164 633 l 240 826 l 404 763 l 356 633 l 510 633 l 476 529 l 315 529 l 167 131 l 339 181 l 369 61 m -37 -389 l -83 -332 l 35 -219 l -33 -158 l 14 -46 l 197 -114 l 140 -272 l -37 -389 z "},"Ť":{"ha":567,"x_min":7,"x_max":719,"o":"m 461 1007 l 265 1122 l 300 1213 l 476 1138 l 656 1206 l 701 1114 l 461 1007 m 676 746 l 482 764 l 196 -26 l 7 47 l 293 779 l 78 799 l 133 972 l 719 894 l 676 746 z "},"ť":{"ha":456,"x_min":-61,"x_max":619,"o":"m 619 911 l 526 704 l 418 704 l 497 951 l 619 911 m 369 61 l 92 -29 l -61 61 l 122 529 l 44 529 l 67 633 l 164 633 l 240 826 l 404 763 l 356 633 l 510 633 l 476 529 l 315 529 l 167 131 l 339 181 l 369 61 z "},"Ŧ":{"ha":569,"x_min":14,"x_max":726,"o":"m 533 435 l 369 435 l 201 -26 l 14 47 l 165 435 l 39 435 l 64 542 l 207 542 l 300 779 l 85 799 l 139 972 l 726 894 l 683 746 l 489 764 l 408 542 l 557 542 l 533 435 z "},"ŧ":{"ha":469,"x_min":-57,"x_max":515,"o":"m 375 61 l 97 -29 l -57 61 l 42 311 l -19 311 l 7 417 l 83 417 l 128 529 l 50 529 l 71 633 l 169 633 l 246 826 l 408 763 l 360 633 l 515 633 l 481 529 l 321 529 l 279 417 l 449 417 l 425 311 l 239 311 l 171 131 l 343 181 l 375 61 z "},"Ũ":{"ha":790,"x_min":-58,"x_max":861,"o":"m 672 1022 l 546 1089 l 451 1029 l 400 1113 l 544 1219 l 654 1151 l 767 1219 l 818 1143 l 672 1022 m 519 -28 l 350 36 l 408 190 q 101 -28 226 14 l -58 104 l 281 972 l 442 913 l 158 133 l 472 372 l 701 972 l 861 913 l 519 -28 z "},"ũ":{"ha":726,"x_min":-44,"x_max":694,"o":"m 540 725 l 414 792 l 319 732 l 268 815 l 413 922 l 522 854 l 635 922 l 686 846 l 540 725 m 494 -28 l 336 43 l 435 379 q 118 -28 260 78 l -44 65 l 147 674 l 322 599 q 156 178 293 414 l 213 149 l 539 665 l 694 614 l 494 -28 z "},"Ū":{"ha":790,"x_min":-58,"x_max":861,"o":"m 439 1060 l 465 1174 l 794 1174 l 769 1060 l 439 1060 m 519 -28 l 350 36 l 408 190 q 101 -28 226 14 l -58 104 l 281 972 l 442 913 l 158 133 l 472 372 l 701 972 l 861 913 l 519 -28 z "},"ū":{"ha":726,"x_min":-44,"x_max":694,"o":"m 307 763 l 333 876 l 663 876 l 638 763 l 307 763 m 494 -28 l 336 43 l 435 379 q 118 -28 260 78 l -44 65 l 147 674 l 322 599 q 156 178 293 414 l 213 149 l 539 665 l 694 614 l 494 -28 z "},"Ŭ":{"ha":790,"x_min":-58,"x_max":861,"o":"m 721 1049 l 507 1014 l 407 1158 l 486 1208 l 554 1128 l 656 1143 l 728 1239 l 804 1190 l 721 1049 m 519 -28 l 350 36 l 408 190 q 101 -28 226 14 l -58 104 l 281 972 l 442 913 l 158 133 l 472 372 l 701 972 l 861 913 l 519 -28 z "},"ŭ":{"ha":726,"x_min":-44,"x_max":694,"o":"m 589 751 l 375 717 l 275 861 l 354 911 l 422 831 l 524 846 l 596 942 l 672 893 l 589 751 m 494 -28 l 336 43 l 435 379 q 118 -28 260 78 l -44 65 l 147 674 l 322 599 q 156 178 293 414 l 213 149 l 539 665 l 694 614 l 494 -28 z "},"Ů":{"ha":790,"x_min":-58,"x_max":861,"o":"m 479 1018 q 511 1170 474 1106 q 604 1244 549 1235 l 746 1200 q 712 1055 750 1118 q 619 981 674 992 l 479 1018 m 614 1054 q 661 1150 656 1081 l 606 1168 q 561 1068 561 1135 l 614 1054 m 519 -28 l 350 36 l 408 190 q 101 -28 226 14 l -58 104 l 281 972 l 442 913 l 158 133 l 472 372 l 701 972 l 861 913 l 519 -28 z "},"ů":{"ha":726,"x_min":-44,"x_max":694,"o":"m 347 721 q 379 873 342 808 q 472 947 417 938 l 614 903 q 580 758 618 821 q 488 683 542 694 l 347 721 m 482 757 q 529 853 524 783 l 474 871 q 429 771 429 838 l 482 757 m 494 -28 l 336 43 l 435 379 q 118 -28 260 78 l -44 65 l 147 674 l 322 599 q 156 178 293 414 l 213 149 l 539 665 l 694 614 l 494 -28 z "},"Ű":{"ha":790,"x_min":-58,"x_max":861,"o":"m 635 1151 l 450 992 l 392 1067 l 561 1242 l 635 1151 m 846 1151 l 660 992 l 603 1067 l 771 1242 l 846 1151 m 519 -28 l 350 36 l 408 190 q 101 -28 226 14 l -58 104 l 281 972 l 442 913 l 158 133 l 472 372 l 701 972 l 861 913 l 519 -28 z "},"ű":{"ha":726,"x_min":-44,"x_max":714,"o":"m 503 854 l 318 694 l 260 769 l 429 944 l 503 854 m 714 854 l 528 694 l 471 769 l 639 944 l 714 854 m 494 -28 l 336 43 l 435 379 q 118 -28 260 78 l -44 65 l 147 674 l 322 599 q 156 178 293 414 l 213 149 l 539 665 l 694 614 l 494 -28 z "},"Ų":{"ha":814,"x_min":-58,"x_max":860,"o":"m 524 -203 l 318 -222 l 269 -24 l 401 15 l 350 36 l 408 190 q 100 -28 226 14 l -58 104 l 281 972 l 442 913 l 158 133 l 472 372 l 700 972 l 860 913 l 519 -28 l 482 -43 l 346 -74 l 353 -97 l 521 -92 l 524 -203 z "},"ų":{"ha":715,"x_min":-54,"x_max":685,"o":"m 490 -203 l 286 -222 l 236 -24 l 379 19 l 326 43 l 425 379 q 108 -28 250 78 l -54 65 l 138 674 l 313 599 q 146 178 283 414 l 203 149 l 529 665 l 685 614 l 485 -28 l 314 -74 l 321 -97 l 488 -92 l 490 -203 z "},"Ŵ":{"ha":1185,"x_min":56,"x_max":1307,"o":"m 940 1017 l 806 1092 l 585 1025 l 549 1117 l 825 1224 l 985 1108 l 940 1017 m 776 -28 l 526 60 l 656 721 l 307 -28 l 56 60 l 182 968 l 364 896 l 239 151 l 640 972 l 829 899 l 694 143 l 1164 972 l 1307 857 l 776 -28 z "},"ŵ":{"ha":964,"x_min":-58,"x_max":946,"o":"m 764 719 l 629 794 l 408 728 l 372 819 l 649 926 l 808 811 l 764 719 m 501 -28 l 321 36 q 186 -28 249 -18 l -58 58 l 135 674 l 313 596 q 128 139 276 417 l 208 111 q 468 674 365 313 l 632 615 q 433 143 574 364 l 517 111 q 671 381 600 225 q 775 675 742 536 l 946 615 q 770 183 900 368 q 501 -28 640 -3 z "},"Ŷ":{"ha":618,"x_min":92,"x_max":753,"o":"m 646 1017 l 511 1092 l 290 1025 l 254 1117 l 531 1224 l 690 1108 l 646 1017 m 264 -28 l 92 49 l 257 349 l 103 389 l 144 972 l 326 947 l 292 413 l 599 972 l 753 911 l 264 -28 z "},"ŷ":{"ha":717,"x_min":-54,"x_max":683,"o":"m 639 719 l 504 794 l 283 728 l 247 819 l 524 926 l 683 811 l 639 719 m 407 -192 l 239 -269 l 58 -186 l 99 -72 l 247 -115 l 435 381 q 108 -28 258 74 l -54 65 l 138 674 l 306 597 q 146 178 274 394 l 203 149 l 535 665 l 563 651 l 681 601 l 407 -192 z "},"Ÿ":{"ha":618,"x_min":92,"x_max":753,"o":"m 494 1213 l 454 1011 l 336 1043 q 368 1242 329 1147 l 494 1213 m 704 1213 l 664 1011 l 546 1043 q 578 1242 539 1147 l 704 1213 m 264 -28 l 92 49 l 257 349 l 103 389 l 144 972 l 326 947 l 292 413 l 599 972 l 753 911 l 264 -28 z "},"Ź":{"ha":658,"x_min":-69,"x_max":751,"o":"m 667 1107 l 350 1028 l 318 1129 l 624 1236 l 667 1107 m 467 -28 l -69 78 l -46 213 l 467 764 l 142 825 l 179 972 q 400 948 282 968 q 601 897 518 928 l 657 956 l 751 847 l 149 194 l 511 128 l 467 -28 z "},"ź":{"ha":603,"x_min":-87,"x_max":596,"o":"m 563 810 l 246 731 l 214 832 l 519 939 l 563 810 m 417 -28 l -50 8 l -87 108 l 332 499 l 71 522 l 93 665 l 471 626 l 524 674 l 596 596 q 386 346 515 471 q 122 135 257 221 l 453 129 l 417 -28 z "},"Ż":{"ha":658,"x_min":-69,"x_max":751,"o":"m 613 1221 l 572 1022 l 428 1050 q 458 1250 421 1154 l 613 1221 m 467 -28 l -69 78 l -46 213 l 467 764 l 142 825 l 179 972 q 400 948 282 968 q 601 897 518 928 l 657 956 l 751 847 l 149 194 l 511 128 l 467 -28 z "},"ż":{"ha":603,"x_min":-87,"x_max":596,"o":"m 517 924 l 476 725 l 332 753 q 363 953 325 857 l 517 924 m 417 -28 l -50 8 l -87 108 l 332 499 l 71 522 l 93 665 l 471 626 l 524 674 l 596 596 q 386 346 515 471 q 122 135 257 221 l 453 129 l 417 -28 z "},"Ž":{"ha":658,"x_min":-69,"x_max":751,"o":"m 494 1007 l 299 1122 l 333 1213 l 510 1138 l 689 1206 l 735 1114 l 494 1007 m 467 -28 l -69 78 l -46 213 l 467 764 l 142 825 l 179 972 q 400 948 282 968 q 601 897 518 928 l 657 956 l 751 847 l 149 194 l 511 128 l 467 -28 z "},"ž":{"ha":603,"x_min":-87,"x_max":631,"o":"m 390 710 l 194 825 l 229 915 l 406 840 l 585 908 l 631 817 l 390 710 m 417 -28 l -50 8 l -87 108 l 332 499 l 71 522 l 93 665 l 471 626 l 524 674 l 596 596 q 386 346 515 471 q 122 135 257 221 l 453 129 l 417 -28 z "},"ƒ":{"ha":428,"x_min":-186,"x_max":536,"o":"m -61 -175 q -160 -189 -111 -196 l -186 -106 l -92 -58 l 139 535 l 56 535 l 76 633 l 178 633 l 243 800 q 316 903 265 861 q 422 956 367 944 q 514 964 469 972 l 536 872 l 421 819 l 353 633 l 468 633 l 436 535 l 317 535 l 111 -25 q 40 -124 89 -85 q -61 -175 -8 -164 z "},"Ș":{"ha":721,"x_min":-72,"x_max":769,"o":"m 482 -29 q -72 61 215 -33 l -24 238 q 429 133 211 168 q 46 453 176 275 l 47 454 q 56 486 49 469 q 242 808 118 672 q 533 972 367 944 q 769 832 686 913 l 639 447 l 489 490 l 593 835 q 244 458 358 764 l 558 193 l 482 -29 m 35 -389 l -11 -332 l 107 -219 l 39 -158 l 86 -46 l 269 -114 l 213 -272 l 35 -389 z "},"ș":{"ha":588,"x_min":-83,"x_max":556,"o":"m 146 -29 q -83 6 42 -29 l -65 138 l 268 138 l 268 188 q -15 272 100 204 q 115 541 15 424 q 331 675 214 658 l 556 585 l 476 332 l 346 349 l 371 547 q 193 310 253 467 l 394 240 l 404 57 q 146 -29 321 -29 m 7 -389 l -39 -332 l 79 -219 l 11 -158 l 58 -46 l 242 -114 l 185 -272 l 7 -389 z "},"Ț":{"ha":567,"x_min":-132,"x_max":719,"o":"m 676 746 l 482 764 l 196 -26 l 7 47 l 293 779 l 78 799 l 133 972 l 719 894 l 676 746 m -86 -389 l -132 -332 l -14 -219 l -82 -158 l -35 -46 l 149 -114 l 92 -272 l -86 -389 z "},"ț":{"ha":500,"x_min":-83,"x_max":510,"o":"m 369 61 l 92 -29 l -61 61 l 122 529 l 44 529 l 67 633 l 164 633 l 240 826 l 404 763 l 356 633 l 510 633 l 476 529 l 315 529 l 167 131 l 339 181 l 369 61 m -37 -389 l -83 -332 l 35 -219 l -33 -158 l 14 -46 l 197 -114 l 140 -272 l -37 -389 z "},"ȷ":{"ha":347,"x_min":-208,"x_max":326,"o":"m -183 -186 l -208 -104 l -122 -58 l 172 674 l 326 610 l 83 -22 q -35 -159 49 -112 q -183 -186 -118 -206 z "},"ˆ":{"ha":694,"x_min":389,"x_max":825,"o":"m 781 719 l 646 794 l 425 728 l 389 819 l 665 926 l 825 811 l 781 719 z "},"ˇ":{"ha":694,"x_min":403,"x_max":839,"o":"m 599 710 l 403 825 l 438 915 l 614 840 l 793 908 l 839 817 l 599 710 z "},"˘":{"ha":694,"x_min":413,"x_max":810,"o":"m 726 751 l 513 717 l 413 861 l 492 911 l 560 831 l 661 846 l 733 942 l 810 893 l 726 751 z "},"˙":{"ha":694,"x_min":532,"x_max":717,"o":"m 717 924 l 676 725 l 532 753 q 563 953 525 857 l 717 924 z "},"˚":{"ha":694,"x_min":485,"x_max":751,"o":"m 485 721 q 517 873 479 808 q 610 947 554 938 l 751 903 q 717 758 756 821 q 625 683 679 694 l 485 721 m 619 757 q 667 853 661 783 l 611 871 q 567 771 567 838 l 619 757 z "},"˛":{"ha":694,"x_min":124,"x_max":419,"o":"m 203 -236 l 124 -50 l 396 82 l 419 24 l 222 -78 l 238 -111 l 385 -69 l 411 -167 l 203 -236 z "},"˜":{"ha":694,"x_min":406,"x_max":824,"o":"m 678 725 l 551 792 l 457 732 l 406 815 l 550 922 l 660 854 l 772 922 l 824 846 l 678 725 z "},"˝":{"ha":694,"x_min":397,"x_max":851,"o":"m 640 854 l 456 694 l 397 769 l 567 944 l 640 854 m 851 854 l 665 694 l 608 769 l 776 944 l 851 854 z "},"̦":{"ha":694,"x_min":113,"x_max":393,"o":"m 158 -389 l 113 -332 l 231 -219 l 163 -158 l 210 -46 l 393 -114 l 336 -272 l 158 -389 z "},"Δ":{"ha":871,"x_min":-101,"x_max":731,"o":"m 714 -37 l -101 117 l -83 196 l 468 971 l 608 933 l 731 36 l 714 -37 m 586 117 l 496 797 l 82 211 l 586 117 z "},"Ω":{"ha":883,"x_min":-121,"x_max":814,"o":"m 736 -28 l 361 24 l 381 122 q 544 253 478 172 q 638 431 610 335 q 676 638 667 526 q 669 857 686 749 q 449 744 546 825 q 299 552 353 663 q 227 308 246 442 q 242 38 208 174 l 229 -28 l -121 24 l -97 157 l 89 129 q 118 524 53 335 q 330 834 183 713 q 668 972 476 956 l 814 893 q 803 458 856 663 q 596 124 751 253 l 761 101 l 736 -28 z "},"μ":{"ha":707,"x_min":-154,"x_max":678,"o":"m 147 6 l 72 -1 l -17 -269 l -154 -221 l -62 63 l -39 138 l 131 674 l 306 599 q 138 178 276 411 l 196 149 l 522 665 l 678 614 l 478 -28 l 319 43 l 418 379 q 147 6 265 108 z "},"π":{"ha":718,"x_min":-36,"x_max":683,"o":"m 618 60 l 576 -35 l 381 13 l 314 115 l 385 465 l 239 490 l 142 -26 l -36 17 l 72 517 l -15 531 l 15 675 l 683 571 l 654 424 l 568 438 l 507 114 l 618 60 z "},"Ẁ":{"ha":1185,"x_min":56,"x_max":1307,"o":"m 601 1094 l 644 1224 l 950 1117 l 918 1015 l 601 1094 m 776 -28 l 526 60 l 656 721 l 307 -28 l 56 60 l 182 968 l 364 896 l 239 151 l 640 972 l 829 899 l 694 143 l 1164 972 l 1307 857 l 776 -28 z "},"ẁ":{"ha":964,"x_min":-58,"x_max":946,"o":"m 425 797 l 468 926 l 774 819 l 742 718 l 425 797 m 501 -28 l 321 36 q 186 -28 249 -18 l -58 58 l 135 674 l 313 596 q 128 139 276 417 l 208 111 q 468 674 365 313 l 632 615 q 433 143 574 364 l 517 111 q 671 381 600 225 q 775 675 742 536 l 946 615 q 770 183 900 368 q 501 -28 640 -3 z "},"Ẃ":{"ha":1185,"x_min":56,"x_max":1307,"o":"m 931 1107 l 614 1028 l 582 1129 l 888 1236 l 931 1107 m 776 -28 l 526 60 l 656 721 l 307 -28 l 56 60 l 182 968 l 364 896 l 239 151 l 640 972 l 829 899 l 694 143 l 1164 972 l 1307 857 l 776 -28 z "},"ẃ":{"ha":964,"x_min":-58,"x_max":946,"o":"m 754 810 l 438 731 l 406 832 l 711 939 l 754 810 m 501 -28 l 321 36 q 186 -28 249 -18 l -58 58 l 135 674 l 313 596 q 128 139 276 417 l 208 111 q 468 674 365 313 l 632 615 q 433 143 574 364 l 517 111 q 671 381 600 225 q 775 675 742 536 l 946 615 q 770 183 900 368 q 501 -28 640 -3 z "},"Ẅ":{"ha":1185,"x_min":56,"x_max":1307,"o":"m 789 1213 l 749 1011 l 631 1043 q 663 1242 624 1147 l 789 1213 m 999 1213 l 958 1011 l 840 1043 q 872 1242 833 1147 l 999 1213 m 776 -28 l 526 60 l 656 721 l 307 -28 l 56 60 l 182 968 l 364 896 l 239 151 l 640 972 l 829 899 l 694 143 l 1164 972 l 1307 857 l 776 -28 z "},"ẅ":{"ha":964,"x_min":-58,"x_max":946,"o":"m 613 915 l 572 714 l 454 746 q 486 944 447 850 l 613 915 m 822 915 l 782 714 l 664 746 q 696 944 657 850 l 822 915 m 501 -28 l 321 36 q 186 -28 249 -18 l -58 58 l 135 674 l 313 596 q 128 139 276 417 l 208 111 q 468 674 365 313 l 632 615 q 433 143 574 364 l 517 111 q 671 381 600 225 q 775 675 742 536 l 946 615 q 770 183 900 368 q 501 -28 640 -3 z "},"Ỳ":{"ha":618,"x_min":92,"x_max":753,"o":"m 307 1094 l 350 1224 l 656 1117 l 624 1015 l 307 1094 m 264 -28 l 92 49 l 257 349 l 103 389 l 144 972 l 326 947 l 292 413 l 599 972 l 753 911 l 264 -28 z "},"ỳ":{"ha":717,"x_min":-54,"x_max":681,"o":"m 299 797 l 342 926 l 647 819 l 615 718 l 299 797 m 407 -192 l 239 -269 l 58 -186 l 99 -72 l 247 -115 l 435 381 q 108 -28 258 74 l -54 65 l 138 674 l 306 597 q 146 178 274 394 l 203 149 l 535 665 l 563 651 l 681 601 l 407 -192 z "},"–":{"ha":711,"x_min":-47,"x_max":657,"o":"m -47 239 l 7 397 l 657 397 l 603 239 l -47 239 z "},"—":{"ha":1406,"x_min":-47,"x_max":1351,"o":"m -47 239 l 7 397 l 1351 397 l 1297 239 l -47 239 z "},"‘":{"ha":292,"x_min":90,"x_max":424,"o":"m 274 586 l 90 660 l 153 836 l 381 972 l 424 913 l 260 774 l 326 711 l 274 586 z "},"’":{"ha":292,"x_min":68,"x_max":403,"o":"m 111 586 l 68 646 l 233 783 l 167 847 l 218 972 l 403 899 l 339 722 l 111 586 z "},"‚":{"ha":275,"x_min":-192,"x_max":142,"o":"m -149 -164 l -192 -104 l -28 33 l -94 97 l -42 222 l 142 149 l 79 -28 l -149 -164 z "},"“":{"ha":579,"x_min":89,"x_max":710,"o":"m 274 585 l 89 658 l 153 835 l 381 971 l 424 911 l 258 774 l 325 710 l 274 585 m 560 585 l 376 658 l 439 835 l 667 971 l 710 911 l 546 774 l 613 710 l 560 585 z "},"”":{"ha":586,"x_min":68,"x_max":697,"o":"m 111 586 l 68 646 l 233 783 l 167 847 l 218 972 l 403 899 l 339 722 l 111 586 m 406 586 l 363 646 l 528 783 l 461 847 l 513 972 l 697 899 l 633 722 l 406 586 z "},"„":{"ha":569,"x_min":-211,"x_max":417,"o":"m -168 -222 l -211 -162 l -47 -25 l -114 39 l -61 164 l 122 90 l 60 -86 l -168 -222 m 126 -222 l 83 -162 l 247 -25 l 181 39 l 233 164 l 417 90 l 354 -86 l 126 -222 z "},"†":{"ha":506,"x_min":-89,"x_max":599,"o":"m 572 640 l 407 640 l 90 -226 l -89 -150 l 217 640 l 67 640 l 96 760 l 263 760 l 344 972 l 506 913 l 449 760 l 599 760 l 572 640 z "},"‡":{"ha":532,"x_min":-121,"x_max":611,"o":"m 392 72 l 211 72 l 103 -226 l -76 -150 l 11 72 l -121 72 l -92 193 l 57 193 l 229 640 l 79 640 l 108 760 l 275 760 l 357 972 l 518 913 l 461 760 l 611 760 l 585 640 l 419 640 l 254 193 l 417 193 l 392 72 z "},"•":{"ha":528,"x_min":-21,"x_max":467,"o":"m 467 454 l 328 75 l -21 200 l 113 578 l 467 454 z "},"…":{"ha":847,"x_min":-115,"x_max":714,"o":"m 132 149 l 68 -28 l -115 40 l -53 218 l 132 149 m 424 149 l 360 -28 l 176 40 l 239 218 l 424 149 m 714 149 l 651 -28 l 468 40 l 531 218 l 714 149 z "},"‰":{"ha":1306,"x_min":61,"x_max":1053,"o":"m 729 972 l 819 910 l 157 -28 l 65 33 l 729 972 m 238 488 q 90 526 168 486 q 76 533 85 528 q 61 543 69 536 q 247 950 85 818 q 346 968 293 965 q 471 918 407 963 q 238 488 439 592 m 200 571 q 357 886 325 660 q 335 892 349 889 q 176 578 208 803 q 200 571 189 572 m 821 -26 l 801 -26 q 656 11 732 -28 q 649 15 654 13 q 642 18 644 17 q 626 28 629 26 q 814 436 650 300 q 911 454 867 453 l 917 454 l 928 454 q 1053 404 985 449 q 821 -26 1021 79 m 758 63 q 764 60 761 61 q 769 58 767 58 q 922 372 890 151 q 918 374 921 372 q 914 375 915 375 q 758 63 790 283 z "},"‹":{"ha":461,"x_min":-60,"x_max":425,"o":"m 296 57 l -60 258 l 1 457 l 388 607 l 425 494 l 92 365 l 367 215 l 296 57 z "},"›":{"ha":461,"x_min":-64,"x_max":421,"o":"m -26 68 l -64 181 l 271 310 l -4 461 l 67 619 l 421 418 l 360 219 l -26 68 z "},"⁄":{"ha":538,"x_min":-87,"x_max":667,"o":"m 576 972 l 667 910 l 4 -28 l -87 33 l 576 972 z "},"⁰":{"ha":378,"x_min":72,"x_max":482,"o":"m 249 488 q 100 526 178 485 q 88 533 96 528 q 72 543 76 539 q 258 950 96 818 q 357 968 304 965 q 482 918 418 963 q 249 488 450 592 m 211 571 q 368 886 333 658 q 346 892 360 889 q 188 578 219 803 q 211 571 200 572 z "},"⁴":{"ha":361,"x_min":97,"x_max":476,"o":"m 319 486 l 204 522 l 253 639 l 97 697 l 203 972 l 314 938 l 235 733 l 283 714 l 372 929 l 476 901 l 319 486 z "},"€":{"ha":835,"x_min":-12,"x_max":892,"o":"m 738 143 l 315 -29 l 78 69 q 96 260 81 171 l 8 242 l -12 347 l 115 372 q 126 406 119 383 q 135 438 132 428 l 53 421 l 32 526 l 176 551 q 375 832 251 721 q 664 972 499 943 q 892 789 793 904 l 804 571 l 643 626 l 710 833 q 396 586 508 772 l 589 624 l 603 524 l 336 469 q 311 403 324 439 l 560 453 l 575 353 l 283 292 q 254 119 267 224 l 692 289 l 738 143 z "},"₹":{"ha":700,"x_min":11,"x_max":786,"o":"m 439 103 l 304 -28 l 11 299 l 46 411 q 313 535 203 438 l 81 596 l 113 715 l 396 639 q 464 776 442 703 l 171 853 l 203 972 l 786 815 l 750 699 l 624 733 q 556 594 597 656 l 688 558 l 651 442 l 478 489 q 229 322 375 378 l 439 103 z "},"ℓ":{"ha":567,"x_min":-61,"x_max":617,"o":"m 106 -28 l -61 49 l 304 972 l 469 938 l 617 750 q 481 505 564 590 q 256 364 397 419 l 164 128 l 376 218 l 408 106 l 106 -28 m 486 731 l 424 803 l 317 524 q 486 731 446 594 z "},"™":{"ha":558,"x_min":61,"x_max":707,"o":"m 571 563 l 494 588 l 607 879 l 426 563 l 364 588 l 414 876 l 301 563 l 225 588 l 374 972 l 489 942 l 435 678 l 594 972 l 707 943 l 571 563 m 317 886 l 264 892 l 144 563 l 61 588 l 181 897 l 121 901 l 135 972 l 328 947 l 317 886 z "},"Ω":{"ha":883,"x_min":-121,"x_max":814,"o":"m 736 -28 l 361 24 l 381 122 q 544 253 478 172 q 638 431 610 335 q 676 638 667 526 q 669 857 686 749 q 449 744 546 825 q 299 552 353 663 q 227 308 246 442 q 242 38 208 174 l 229 -28 l -121 24 l -97 157 l 89 129 q 118 524 53 335 q 330 834 183 713 q 668 972 476 956 l 814 893 q 803 458 856 663 q 596 124 751 253 l 761 101 l 736 -28 z "},"℮":{"ha":1072,"x_min":33,"x_max":1033,"o":"m 1033 424 l 224 424 q 217 418 217 424 l 217 174 q 228 146 217 157 q 535 13 354 13 q 857 161 726 13 l 929 161 q 756 33 860 81 q 533 -14 651 -14 q 180 118 326 -14 q 33 436 33 250 q 180 754 33 622 q 533 886 326 886 q 887 754 740 886 q 1033 436 1033 622 l 1033 424 m 850 456 l 850 703 q 838 732 850 719 q 535 860 710 860 q 229 728 357 860 q 217 697 217 715 l 217 456 q 224 449 217 449 l 844 449 q 850 456 850 449 z "},"∂":{"ha":639,"x_min":-49,"x_max":590,"o":"m 225 -28 l -49 65 q 38 450 -61 286 q 288 643 136 614 l 447 564 l 264 931 l 422 972 l 590 582 q 547 299 592 433 q 417 73 503 164 q 225 -28 332 -18 m 196 93 q 324 256 265 149 q 406 474 382 364 l 313 514 q 184 333 236 440 q 121 122 132 226 l 196 93 z "},"∆":{"ha":871,"x_min":-101,"x_max":731,"o":"m 714 -37 l -101 117 l -83 196 l 468 971 l 608 933 l 731 36 l 714 -37 m 586 117 l 496 797 l 82 211 l 586 117 z "},"∏":{"ha":793,"x_min":19,"x_max":838,"o":"m 808 715 l 715 729 l 565 -26 l 389 17 l 547 756 l 364 786 l 196 -26 l 19 17 l 197 813 l 108 826 l 138 971 l 838 863 l 808 715 z "},"∑":{"ha":646,"x_min":-207,"x_max":747,"o":"m 413 -269 l -207 -162 l -182 -36 l 404 350 l 133 844 l 160 971 l 747 875 l 721 746 l 300 817 l 528 407 l 493 235 l 13 -69 l 438 -140 l 413 -269 z "},"−":{"ha":635,"x_min":-40,"x_max":567,"o":"m 567 346 l 538 215 l -40 342 l -10 469 l 567 346 z "},"∕":{"ha":538,"x_min":-87,"x_max":667,"o":"m 576 972 l 667 910 l 4 -28 l -87 33 l 576 972 z "},"√":{"ha":753,"x_min":38,"x_max":894,"o":"m 243 -28 l 113 4 l 38 565 l 167 588 l 218 164 l 701 971 l 894 894 l 854 786 l 763 821 l 243 -28 z "},"∞":{"ha":990,"x_min":-32,"x_max":911,"o":"m 585 38 l 424 264 l 157 58 l -32 321 l -19 408 l 300 640 l 460 417 l 726 622 l 911 357 l 900 268 l 585 38 m 185 200 l 371 346 l 260 497 l 74 357 l 185 200 m 625 176 l 811 318 l 696 476 l 513 335 l 625 176 z "},"∫":{"ha":415,"x_min":-240,"x_max":542,"o":"m -215 -260 l -240 -178 l -131 -129 l 232 800 q 311 906 257 864 q 425 960 365 949 q 519 964 474 972 l 542 872 l 410 818 l 72 -96 q -10 -206 47 -162 q -129 -258 -67 -249 q -215 -260 -172 -268 z "},"≈":{"ha":742,"x_min":-90,"x_max":721,"o":"m 431 321 l 322 360 l 210 510 l 36 378 l -32 467 l 222 676 l 318 607 l 407 486 l 454 456 l 656 628 l 721 543 l 539 369 l 519 360 l 431 321 m 374 7 l 265 46 l 151 197 l -24 65 l -90 154 l 165 364 l 260 294 l 350 174 l 397 143 l 599 314 l 664 231 l 482 56 l 461 47 l 374 7 z "},"≠":{"ha":690,"x_min":-71,"x_max":646,"o":"m 507 76 l 208 142 l 69 -26 l -28 54 l 71 171 l -71 203 l -40 331 l 168 288 l 286 426 l 44 481 l 72 608 l 381 543 l 519 706 l 610 625 l 515 513 l 646 485 l 618 354 l 421 397 l 304 257 l 535 207 l 507 76 z "},"≤":{"ha":608,"x_min":-97,"x_max":582,"o":"m 446 249 l 54 515 l 76 660 l 142 689 l 532 871 l 582 743 l 203 574 l 506 378 l 446 249 m 507 125 l 479 -6 l -97 121 l -68 249 l 507 125 z "},"≥":{"ha":604,"x_min":-117,"x_max":558,"o":"m 74 274 l 24 403 l 407 567 l 107 767 l 171 894 l 558 621 l 533 478 l 74 274 m 488 125 l 458 -6 l -117 121 l -89 249 l 488 125 z "},"◊":{"ha":779,"x_min":15,"x_max":690,"o":"m 690 289 l 283 -257 l 143 -224 l 15 425 l 419 971 l 560 939 l 690 289 m 153 392 l 242 -93 l 554 322 l 457 807 l 153 392 z "},"":{"ha":2354,"x_min":122,"x_max":2232,"o":"m 122 0 l 122 972 l 422 972 l 422 0 l 122 0 m 485 689 l 485 972 l 785 972 l 785 689 l 485 689 m 846 0 l 846 972 l 1147 972 l 1147 0 l 846 0 m 1208 689 l 1208 972 l 1508 972 l 1508 689 l 1208 689 m 1569 0 l 1569 972 l 1871 972 l 1871 0 l 1569 0 m 1932 689 l 1932 972 l 2232 972 l 2232 689 l 1932 689 m 1932 343 l 1932 628 l 2232 628 l 2232 343 l 1932 343 z "},"ﬁ":{"ha":696,"x_min":-187,"x_max":732,"o":"m 101 -25 q -15 -162 68 -115 q -162 -189 -99 -208 l -187 -106 l -103 -60 l 129 535 l 46 535 l 67 633 l 168 633 l 300 972 l 471 911 q 433 760 468 840 q 344 633 399 681 l 494 633 l 507 667 l 533 656 l 672 603 l 429 -28 l 256 49 l 454 535 l 307 535 l 101 -25 m 732 924 l 692 725 l 547 753 q 578 953 540 857 l 732 924 z "},"ﬂ":{"ha":699,"x_min":-187,"x_max":794,"o":"m 101 -25 q -15 -162 68 -115 q -162 -189 -99 -208 l -187 -106 l -103 -60 l 129 535 l 46 535 l 67 633 l 168 633 l 300 972 l 471 911 q 433 760 468 840 q 344 633 399 681 l 493 633 l 626 972 l 794 910 l 419 -28 l 263 49 l 454 535 l 307 535 l 101 -25 z "}}}
